<svg xmlns="http://www.w3.org/2000/svg" width="119.241" height="30.473" viewBox="0 0 119.241 30.473">
  <g id="PayPal" transform="translate(-907.731 -1597.815)">
    <g id="Group_915" data-name="Group 915">
      <path id="Path_2889" data-name="Path 2889" d="M999.906,1605.764h-6.435a1.258,1.258,0,0,0-.946.757l-2.65,16.656a.5.5,0,0,0,.568.568h3.407a.5.5,0,0,0,.568-.568l.757-4.732a.866.866,0,0,1,.946-.757H998.2q6.53,0,7.382-6.246a4.964,4.964,0,0,0-.757-4.164,7.64,7.64,0,0,0-4.922-1.514m.758,6.246c-.379,2.271-2.082,2.271-3.786,2.271h-1.136l.758-4.353c0-.189.189-.378.567-.378h.379c1.136,0,2.271,0,2.839.757.379.189.379.757.379,1.7" fill="#139ad6"/>
      <g id="Group_914" data-name="Group 914">
        <path id="Path_2890" data-name="Path 2890" d="M953.535,1605.764H947.1a1.26,1.26,0,0,0-.947.757l-2.65,16.656a.5.5,0,0,0,.568.568H947.1a1.257,1.257,0,0,0,.946-.757l.757-4.543a.866.866,0,0,1,.946-.757h2.082q6.531,0,7.382-6.246a4.961,4.961,0,0,0-.757-4.164,7.278,7.278,0,0,0-4.921-1.514m.757,6.246c-.379,2.271-2.082,2.271-3.785,2.271h-.947l.757-4.353c0-.189.19-.378.568-.378h.379c1.135,0,2.271,0,2.839.757a2.029,2.029,0,0,1,.189,1.7" fill="#263b80"/>
        <path id="Path_2891" data-name="Path 2891" d="M973.03,1611.821H970c-.19,0-.568.189-.568.378l-.19.947-.189-.379a4.453,4.453,0,0,0-3.6-1.325,7.273,7.273,0,0,0-7,6.246,5.638,5.638,0,0,0,1.136,4.732,4.767,4.767,0,0,0,3.974,1.514,6.053,6.053,0,0,0,4.354-1.7l-.19.946a.5.5,0,0,0,.568.568h2.839a1.258,1.258,0,0,0,.947-.757l1.7-10.6c-.189-.19-.568-.568-.757-.568m-4.353,6.057a3.662,3.662,0,0,1-3.6,3.028,3.031,3.031,0,0,1-2.082-.757,4.041,4.041,0,0,1-.567-2.271,3.376,3.376,0,0,1,5.489-2.272,3.311,3.311,0,0,1,.757,2.272" fill="#263b80"/>
      </g>
      <path id="Path_2892" data-name="Path 2892" d="M1019.212,1611.821h-3.028c-.189,0-.568.189-.568.378l-.189.947-.19-.379a4.453,4.453,0,0,0-3.6-1.325,7.273,7.273,0,0,0-7,6.246,5.644,5.644,0,0,0,1.136,4.732,4.768,4.768,0,0,0,3.975,1.514,6.05,6.05,0,0,0,4.353-1.7l-.189.946a.5.5,0,0,0,.567.568h2.839a1.256,1.256,0,0,0,.947-.757l1.7-10.6c-.189-.19-.378-.568-.757-.568m-4.353,6.057a3.662,3.662,0,0,1-3.6,3.028,3.027,3.027,0,0,1-2.082-.757,4.033,4.033,0,0,1-.568-2.271,3.376,3.376,0,0,1,5.489-2.272,2.174,2.174,0,0,1,.757,2.272" fill="#139ad6"/>
      <path id="Path_2893" data-name="Path 2893" d="M989.5,1611.821h-3.218a.983.983,0,0,0-.757.378l-4.164,6.436-1.893-6.057a.873.873,0,0,0-.946-.568H975.49c-.378,0-.567.379-.567.757l3.406,10.032-3.217,4.542c-.189.379,0,.947.378.947h3.029a.985.985,0,0,0,.757-.379l10.41-14.952c.568-.568.189-1.136-.189-1.136" fill="#263b80"/>
      <path id="Path_2894" data-name="Path 2894" d="M1022.808,1606.332l-2.649,17.035a.5.5,0,0,0,.567.567h2.65a1.255,1.255,0,0,0,.946-.757l2.65-16.656a.5.5,0,0,0-.568-.567h-3.028c-.189-.19-.378,0-.568.378" fill="#139ad6"/>
      <path id="Path_2895" data-name="Path 2895" d="M929.5,1600.086c-1.325-1.514-3.785-2.271-7.192-2.271h-9.464a1.624,1.624,0,0,0-1.324,1.135l-3.786,24.8a.866.866,0,0,0,.757.946h5.868l1.514-9.274v.379a1.623,1.623,0,0,1,1.325-1.136h2.839c5.489,0,9.653-2.271,10.978-8.517v-.568h0c.189-2.461-.19-3.975-1.515-5.489" fill="#263b80"/>
      <path id="Path_2896" data-name="Path 2896" d="M930.822,1605.575h0v.568c-1.325,6.435-5.489,8.517-10.977,8.517h-2.84a1.623,1.623,0,0,0-1.324,1.136l-1.893,11.545a.693.693,0,0,0,.757.757h4.921a1.06,1.06,0,0,0,1.136-.946v-.189l.946-5.868v-.378a1.061,1.061,0,0,1,1.136-.947h.757c4.731,0,8.517-1.892,9.463-7.571.379-2.271.19-4.353-.946-5.678a1.939,1.939,0,0,0-1.136-.946" fill="#139ad6"/>
      <path id="Path_2897" data-name="Path 2897" d="M929.5,1605.007c-.189,0-.378-.189-.567-.189a.7.7,0,0,1-.568-.189,9.959,9.959,0,0,0-2.461-.19H918.52a.693.693,0,0,0-.568.19,1.039,1.039,0,0,0-.568.946l-1.514,9.842v.379a1.623,1.623,0,0,1,1.325-1.136h2.839c5.489,0,9.653-2.271,10.978-8.517a.7.7,0,0,1,.189-.568c-.379-.189-.568-.379-.947-.379-.567-.189-.567-.189-.757-.189" fill="#232c65"/>
    </g>
  </g>
</svg>
