<svg xmlns="http://www.w3.org/2000/svg" width="90.461" height="27.426" viewBox="0 0 90.461 27.426">
  <g id="Visa" transform="translate(-1042.803 -1599.338)">
    <g id="Group_913" data-name="Group 913">
      <path id="Path_2874" data-name="Path 2874" d="M1075.972,1626.046l4.595-25.846h7.179l-4.451,25.846Z" fill="#3c58bf"/>
      <path id="Path_2875" data-name="Path 2875" d="M1075.972,1626.046l5.887-25.846h5.887l-4.451,25.846Z" fill="#293688"/>
      <path id="Path_2876" data-name="Path 2876" d="M1109.285,1600.487a18.216,18.216,0,0,0-6.6-1.149c-7.18,0-12.349,3.59-12.349,8.759,0,3.877,3.59,5.888,6.462,7.18s3.733,2.154,3.733,3.3c0,1.723-2.3,2.585-4.308,2.585a15.61,15.61,0,0,1-6.892-1.436l-1.005-.431-1.005,5.887a23.278,23.278,0,0,0,8.184,1.436c7.611,0,12.636-3.589,12.636-9.046,0-3.015-1.866-5.313-6.174-7.179-2.585-1.292-4.164-2.01-4.164-3.3,0-1.148,1.292-2.3,4.164-2.3a13.171,13.171,0,0,1,5.456,1.005l.718.287,1.149-5.6Z" fill="#3c58bf"/>
      <path id="Path_2877" data-name="Path 2877" d="M1109.285,1600.487a18.216,18.216,0,0,0-6.6-1.149c-7.18,0-11.057,3.59-11.057,8.759,0,3.877,2.3,5.888,5.17,7.18s3.733,2.154,3.733,3.3c0,1.723-2.3,2.585-4.308,2.585a15.61,15.61,0,0,1-6.892-1.436l-1.005-.431-1.005,5.887a23.278,23.278,0,0,0,8.184,1.436c7.611,0,12.636-3.589,12.636-9.046,0-3.015-1.866-5.313-6.174-7.179-2.585-1.292-4.164-2.01-4.164-3.3,0-1.148,1.292-2.3,4.164-2.3a13.171,13.171,0,0,1,5.456,1.005l.718.287,1.149-5.6Z" fill="#293688"/>
      <path id="Path_2878" data-name="Path 2878" d="M1121.634,1600.2c-1.724,0-3.016.144-3.734,1.867l-10.769,23.979h7.754l1.436-4.308h9.189l.862,4.308h6.892l-6.031-25.846Zm-3.3,17.231c.431-1.293,2.872-7.611,2.872-7.611s.574-1.579,1.005-2.584l.431,2.441s1.436,6.461,1.723,7.9h-6.031Z" fill="#3c58bf"/>
      <path id="Path_2879" data-name="Path 2879" d="M1123.357,1600.2c-1.723,0-3.016.144-3.734,1.867l-12.492,23.979h7.754l1.436-4.308h9.189l.862,4.308h6.892l-6.031-25.846Zm-5.026,17.231c.574-1.436,2.872-7.611,2.872-7.611s.574-1.579,1.005-2.584l.431,2.441s1.436,6.461,1.723,7.9h-6.031Z" fill="#293688"/>
      <path id="Path_2880" data-name="Path 2880" d="M1062.762,1618.292l-.718-3.733c-1.292-4.308-5.456-9.046-10.051-11.344l6.461,22.975h7.754l11.631-25.846h-7.754Z" fill="#3c58bf"/>
      <path id="Path_2881" data-name="Path 2881" d="M1062.762,1618.292l-.718-3.733c-1.292-4.308-5.456-9.046-10.051-11.344l6.461,22.975h7.754l11.631-25.846h-6.318Z" fill="#293688"/>
      <path id="Path_2882" data-name="Path 2882" d="M1042.8,1600.2l1.293.287c9.189,2.154,15.507,7.61,17.948,14.072l-2.584-12.2c-.431-1.723-1.724-2.154-3.3-2.154Z" fill="#ffbc00"/>
      <path id="Path_2883" data-name="Path 2883" d="M1042.8,1600.2h0c9.19,2.154,16.8,7.754,19.241,14.215l-2.441-10.2a3.505,3.505,0,0,0-3.446-2.728Z" fill="#f7981d"/>
      <path id="Path_2884" data-name="Path 2884" d="M1042.8,1600.2h0c9.19,2.154,16.8,7.754,19.241,14.215l-1.723-5.6c-.431-1.723-1.005-3.446-3.015-4.164Z" fill="#ed7c00"/>
      <g id="Group_912" data-name="Group 912">
        <path id="Path_2885" data-name="Path 2885" d="M1069.942,1617.431l-4.882-4.882-2.3,5.456-.574-3.59c-1.293-4.307-5.457-9.046-10.051-11.343l6.461,22.974h7.754Z" fill="#051244"/>
        <path id="Path_2886" data-name="Path 2886" d="M1083.3,1626.046l-6.174-6.318-1.149,6.318Z" fill="#051244"/>
        <path id="Path_2887" data-name="Path 2887" d="M1099.808,1617.143h0c.574.575.862,1.006.718,1.58,0,1.723-2.3,2.585-4.308,2.585a15.61,15.61,0,0,1-6.892-1.436l-1.005-.431-1.005,5.887a23.278,23.278,0,0,0,8.184,1.436c4.595,0,8.329-1.292,10.482-3.59Z" fill="#051244"/>
        <path id="Path_2888" data-name="Path 2888" d="M1108.136,1626.046h6.749l1.436-4.308h9.189l.862,4.308h6.892l-2.441-10.482-8.615-8.328.431,2.3s1.436,6.462,1.723,7.9h-6.031c.574-1.436,2.872-7.611,2.872-7.611s.574-1.579,1.005-2.584" fill="#051244"/>
      </g>
    </g>
  </g>
</svg>
