<svg xmlns="http://www.w3.org/2000/svg" width="87.661" height="30.473" viewBox="0 0 87.661 30.473">
  <g id="American_express" data-name="American express" transform="translate(-803.779 -1597.815)">
    <g id="Group_922" data-name="Group 922">
      <path id="Path_2898" data-name="Path 2898" d="M811.293,1605.329h3.061l-1.531-3.9Z" fill="#2fabf7"/>
      <path id="Path_2899" data-name="Path 2899" d="M849.279,1601.989a2.712,2.712,0,0,0-1.113-.139h-2.783v2.226h2.783a2.712,2.712,0,0,0,1.113-.139,1.081,1.081,0,0,0,.418-.974A.774.774,0,0,0,849.279,1601.989Z" fill="#228fe0"/>
      <path id="Path_2900" data-name="Path 2900" d="M879.056,1597.815v1.67l-.835-1.67h-6.539v1.67l-.835-1.67h-8.906a8.47,8.47,0,0,0-3.9.835v-.835h-6.261v.835a4.011,4.011,0,0,0-2.644-.835h-22.4l-1.531,3.478-1.53-3.478h-7.1v1.67l-.835-1.67h-5.983l-2.783,6.54-3.2,7.235h7.1l.835-2.226h1.948l.835,2.226h8.07v-1.67l.7,1.67h4.035l.7-1.67v1.67h19.341v-3.618h.279c.278,0,.278,0,.278.418v3.061h10.018v-.835a8.326,8.326,0,0,0,3.757.835h4.175l.834-2.226h1.948l.835,2.226h8.071v-2.087l1.252,2.087h6.54v-13.636ZM832.025,1609.5H829.66v-7.653l-3.34,7.653h-2.087l-3.339-7.653v7.653h-4.731l-.974-2.087h-4.731l-.835,2.226h-2.644l4.175-9.879h3.478l3.9,9.323v-9.323h3.757l3.061,6.679,2.783-6.679h3.9Zm9.462-7.653h-5.426v1.809h5.287v1.948h-5.287v1.948h5.426v2.087H833.7v-9.879h7.792Zm10.436,4.035a3.485,3.485,0,0,1,.417,1.809v1.948h-2.365v-1.252a3.316,3.316,0,0,0-.417-1.948c-.418-.418-.835-.418-1.67-.418h-2.505v3.618h-2.365v-9.879H848.3a5.337,5.337,0,0,1,2.783.417,2.371,2.371,0,0,1,1.113,2.227,2.77,2.77,0,0,1-1.669,2.643A2.653,2.653,0,0,1,851.923,1605.885Zm4.174,3.618h-2.365v-9.879H856.1Zm27.412,0h-3.34l-4.452-7.375v7.375h-4.731l-.835-2.087h-4.87l-.835,2.226H861.8a4.183,4.183,0,0,1-4.591-4.87,5.7,5.7,0,0,1,1.252-3.9c.7-.835,1.948-1.113,3.478-1.113h2.227v2.087h-2.227a2.562,2.562,0,0,0-1.808.557,3.263,3.263,0,0,0-.7,2.226,3.024,3.024,0,0,0,.7,2.365,2.215,2.215,0,0,0,1.669.557h.974l3.2-7.653h3.478l3.9,9.323V1599.9h3.479l4.035,6.818V1599.9h2.366v9.6Z" fill="#0571c1"/>
      <g id="Group_916" data-name="Group 916">
        <path id="Path_2901" data-name="Path 2901" d="M866.116,1605.329h3.2l-1.531-3.9Z" fill="#228fe0"/>
        <path id="Path_2902" data-name="Path 2902" d="M842.461,1625.365v-7.931l-3.618,3.9Z" fill="#228fe0"/>
      </g>
      <path id="Path_2903" data-name="Path 2903" d="M827.573,1618.408v1.809h5.148v1.948h-5.148v2.087h5.7l2.644-2.922-2.5-2.922Z" fill="#2fabf7"/>
      <path id="SVGCleanerId_0" data-name="SVGCleanerId 0" d="M847.749,1618.408h-2.922v2.505h3.061c.835,0,1.391-.418,1.391-1.252A1.4,1.4,0,0,0,847.749,1618.408Z" fill="#228fe0"/>
      <path id="Path_2904" data-name="Path 2904" d="M890.744,1620.774v-6.262H884.9a4.57,4.57,0,0,0-2.922.835v-.835h-6.4a4.418,4.418,0,0,0-2.783.835v-.835H861.524v.835a5.376,5.376,0,0,0-3.061-.835h-7.514v.835c-.7-.7-2.365-.835-3.2-.835H839.4l-1.948,2.087-1.809-2.087H823.12v13.636h12.245l1.948-2.087,1.809,2.087h7.514v-3.2h.974a8.471,8.471,0,0,0,3.2-.417v3.757h6.261v-3.618h.279c.417,0,.417,0,.417.417v3.2h18.924a5.46,5.46,0,0,0,3.2-.835v.835h5.983a6.256,6.256,0,0,0,3.34-.7h0a4.738,4.738,0,0,0,2.226-4.174A5.319,5.319,0,0,0,890.744,1620.774ZM847.61,1623h-2.783v3.34h-4.453l-2.783-3.2-2.922,3.2h-9.184v-9.88h9.323l2.783,3.2,2.922-3.2h7.375c1.809,0,3.9.557,3.9,3.2C851.645,1622.443,849.7,1623,847.61,1623Zm13.914-.557a3.163,3.163,0,0,1,.417,1.809v1.948h-2.365v-1.252a3.11,3.11,0,0,0-.417-1.948c-.279-.417-.835-.417-1.67-.417h-2.505v3.617h-2.365v-9.879h5.287a5.6,5.6,0,0,1,2.783.418,2.46,2.46,0,0,1,1.252,2.226,2.773,2.773,0,0,1-1.669,2.644A2.381,2.381,0,0,1,861.524,1622.443Zm9.6-4.035H865.7v1.809h5.288v1.948H865.7v1.948h5.427v2.087h-7.792v-9.879h7.792Zm5.844,7.792h-4.453v-2.087h4.453a1.174,1.174,0,0,0,.974-.278,1.01,1.01,0,0,0,0-1.392,1.176,1.176,0,0,0-.835-.278c-2.226-.139-4.87,0-4.87-3.061,0-1.391.835-2.922,3.34-2.922h4.591v2.365h-4.313a2.052,2.052,0,0,0-.974.14c-.278.139-.278.417-.278.695,0,.418.278.557.556.7a1.769,1.769,0,0,0,.835.139h1.252a3.539,3.539,0,0,1,2.644.835,2.877,2.877,0,0,1,.7,2.087C880.587,1625.226,879.335,1626.2,876.969,1626.2Zm11.967-.974a4.057,4.057,0,0,1-2.922.974h-4.453v-2.087h4.453a1.176,1.176,0,0,0,.974-.278,1.01,1.01,0,0,0,0-1.392,1.179,1.179,0,0,0-.835-.278c-2.227-.139-4.87,0-4.87-3.061,0-1.391.834-2.922,3.339-2.922h4.592v2.365H885.04a2.05,2.05,0,0,0-.974.14c-.279.139-.279.417-.279.695,0,.418.139.557.557.7a1.765,1.765,0,0,0,.835.139h1.252a3.543,3.543,0,0,1,2.644.835.136.136,0,0,1,.139.139,3.2,3.2,0,0,1,.556,1.948A2.831,2.831,0,0,1,888.936,1625.226Z" fill="#0571c1"/>
      <path id="SVGCleanerId_1" data-name="SVGCleanerId 1" d="M859.019,1618.687a2.694,2.694,0,0,0-1.113-.14h-2.783v2.227h2.783a2.711,2.711,0,0,0,1.113-.139,1.083,1.083,0,0,0,.418-.974A.773.773,0,0,0,859.019,1618.687Z" fill="#228fe0"/>
      <g id="Group_917" data-name="Group 917">
        <path id="Path_2905" data-name="Path 2905" d="M849.279,1601.989a2.712,2.712,0,0,0-1.113-.139h-2.783v2.226h2.783a2.712,2.712,0,0,0,1.113-.139,1.081,1.081,0,0,0,.418-.974A.774.774,0,0,0,849.279,1601.989Z" fill="#228fe0"/>
        <path id="Path_2906" data-name="Path 2906" d="M866.116,1605.329h3.2l-1.531-3.9Z" fill="#228fe0"/>
        <path id="Path_2907" data-name="Path 2907" d="M842.461,1625.365v-7.931l-3.618,3.9Z" fill="#228fe0"/>
      </g>
      <g id="Group_918" data-name="Group 918">
        <path id="SVGCleanerId_0-2" data-name="SVGCleanerId 0" d="M847.749,1618.408h-2.922v2.505h3.061c.835,0,1.391-.418,1.391-1.252A1.4,1.4,0,0,0,847.749,1618.408Z" fill="#228fe0"/>
      </g>
      <g id="Group_919" data-name="Group 919">
        <path id="SVGCleanerId_1-2" data-name="SVGCleanerId 1" d="M859.019,1618.687a2.694,2.694,0,0,0-1.113-.14h-2.783v2.227h2.783a2.711,2.711,0,0,0,1.113-.139,1.083,1.083,0,0,0,.418-.974A.773.773,0,0,0,859.019,1618.687Z" fill="#228fe0"/>
      </g>
      <g id="Group_920" data-name="Group 920">
        <path id="Path_2908" data-name="Path 2908" d="M846.775,1625.922l-1.948-2.087v2.365h-4.592l-2.783-3.2-3.061,3.2h-9.184v-9.74h9.323l2.922,3.2,1.391-1.67-3.479-3.479H823.12v13.636h12.245l2.087-2.087,1.809,2.087h7.514Z" fill="#2fabf7"/>
        <path id="Path_2909" data-name="Path 2909" d="M832.3,1611.451l-1.809-1.948h-.835v-.835l-2.087-2.087-1.391,2.922h-1.948l-3.339-7.653v7.653h-4.731l-.974-2.087h-4.731l-.974,2.087h-2.5l4.174-9.74h3.479l3.9,9.323v-9.323h2.087l-1.948-1.948H816.58v1.67l-.7-1.67h-6.122l-2.783,6.54-3.2,7.1h7.236l.835-2.087H813.8l.974,2.087h7.792v-1.67l.7,1.67h4.035l.7-1.67v1.67Z" fill="#2fabf7"/>
        <path id="Path_2910" data-name="Path 2910" d="M825.9,1605.05l-2.226-2.226,1.67,3.618Z" fill="#2fabf7"/>
      </g>
      <g id="Group_921" data-name="Group 921">
        <path id="Path_2911" data-name="Path 2911" d="M889.214,1627.453a5.091,5.091,0,0,0,2.226-3.757l-1.948-1.948a4.119,4.119,0,0,1,.278,1.391,2.831,2.831,0,0,1-.834,2.087,4.057,4.057,0,0,1-2.922.974h-4.453v-2.087h4.453a1.176,1.176,0,0,0,.974-.278,1.01,1.01,0,0,0,0-1.392,1.179,1.179,0,0,0-.835-.278c-2.227-.139-4.87,0-4.87-3.061,0-1.391.834-2.644,2.922-2.922l-1.531-1.531c-.278.14-.417.279-.557.279v-.835h-6.4a4.414,4.414,0,0,0-2.783.835v-.835h-11.41v.835a5.376,5.376,0,0,0-3.061-.835h-7.514v.835c-.7-.7-2.365-.835-3.2-.835H839.4l-1.948,2.087-1.809-2.087h-1.531l4.175,4.174,2.087-2.226h7.375c1.809,0,3.9.556,3.9,3.2,0,2.783-1.948,3.34-4.035,3.34h-2.783v2.087l2.087,2.087v-2.087h.7a8.451,8.451,0,0,0,3.2-.418v3.757h6.261v-3.617h.279c.417,0,.417,0,.417.417v3.2h18.924a5.452,5.452,0,0,0,3.2-.835v.835h5.983a5.527,5.527,0,0,0,3.34-.556Zm-27.69-5.01a3.163,3.163,0,0,1,.417,1.809v1.948h-2.365v-1.252a3.11,3.11,0,0,0-.417-1.948c-.279-.417-.835-.417-1.67-.417h-2.505v3.617h-2.365v-9.879h5.287a5.6,5.6,0,0,1,2.783.418,2.46,2.46,0,0,1,1.252,2.226,2.773,2.773,0,0,1-1.669,2.644A2.381,2.381,0,0,1,861.524,1622.443Zm9.6-4.035H865.7v1.809h5.288v1.948H865.7v1.948h5.427v2.087h-7.792v-9.879h7.792Zm5.844,7.792h-4.453v-2.087h4.453a1.174,1.174,0,0,0,.974-.278,1.01,1.01,0,0,0,0-1.392,1.176,1.176,0,0,0-.835-.278c-2.226-.139-4.87,0-4.87-3.061,0-1.391.835-2.922,3.34-2.922h4.591v2.365h-4.313a2.052,2.052,0,0,0-.974.14c-.278.139-.278.417-.278.695,0,.418.278.557.556.7a1.769,1.769,0,0,0,.835.139h1.252a3.539,3.539,0,0,1,2.644.835,2.877,2.877,0,0,1,.7,2.087C880.587,1625.226,879.335,1626.2,876.969,1626.2Z" fill="#228fe0"/>
        <path id="Path_2912" data-name="Path 2912" d="M883.648,1619.382c0,.418.139.557.557.7a1.764,1.764,0,0,0,.835.139h1.252a4.032,4.032,0,0,1,1.948.418l-2.087-2.088H884.9a2.054,2.054,0,0,0-.974.14A1.062,1.062,0,0,0,883.648,1619.382Z" fill="#228fe0"/>
        <path id="Path_2913" data-name="Path 2913" d="M878.778,1611.034l.278.417h.139Z" fill="#228fe0"/>
        <path id="Path_2914" data-name="Path 2914" d="M871.125,1603.381l2.365,5.7v-3.339Z" fill="#228fe0"/>
        <path id="Path_2915" data-name="Path 2915" d="M847.331,1607.972h.279c.278,0,.278,0,.278.418v3.061h10.018v-.835a8.326,8.326,0,0,0,3.757.835h4.175l.834-2.226h1.948l.835,2.226h8.071v-1.391l-1.948-1.948v1.53h-4.731l-.7-2.226h-4.87l-.835,2.226H861.8a4.183,4.183,0,0,1-4.591-4.87,5.7,5.7,0,0,1,1.252-3.9c.7-.835,1.948-1.113,3.478-1.113h2.227v2.087h-2.227a2.562,2.562,0,0,0-1.808.557,3.263,3.263,0,0,0-.7,2.226,3.024,3.024,0,0,0,.7,2.365,2.215,2.215,0,0,0,1.669.557h.974l3.2-7.653h1.391l-1.948-1.948H861.8a8.469,8.469,0,0,0-3.9.835v-.835h-6.122v.835a4.012,4.012,0,0,0-2.644-.835h-22.4l-1.531,3.479-1.53-3.479h-6.123l1.948,1.948h2.783l2.366,5.148.835.835,2.5-6.122h3.9v9.879h-2.365v-7.653l-2.366,5.566,4.035,4.035h16Zm6.4-8.209H856.1v9.879h-2.365Zm-12.245,2.087h-5.426v1.809h5.287v1.948h-5.287v1.948h5.426v2.087H833.7v-9.879h7.792Zm3.9,7.653h-2.365v-9.879H848.3a5.339,5.339,0,0,1,2.783.417,2.371,2.371,0,0,1,1.113,2.226,2.77,2.77,0,0,1-1.669,2.644,1.824,1.824,0,0,1,1.113.835,3.486,3.486,0,0,1,.417,1.809v1.948H849.7v-1.252a3.309,3.309,0,0,0-.418-1.948c-.139-.279-.556-.279-1.391-.279h-2.505v3.479Z" fill="#228fe0"/>
      </g>
    </g>
  </g>
</svg>
