<svg xmlns="http://www.w3.org/2000/svg" width="71.368" height="75" viewBox="0 0 71.368 75">
  <path id="Path_2700" data-name="Path 2700" d="M807.36,2425.539H775.431a1.115,1.115,0,0,1-1.115-1.114v-67.316a6.578,6.578,0,0,1,6.571-6.57H789.4a1.114,1.114,0,1,1,0,2.227h-8.517a4.348,4.348,0,0,0-4.343,4.343v66.2H807.36a1.114,1.114,0,0,1,0,2.228Zm10.033,0h-5.578a1.114,1.114,0,0,1,0-2.228h4.814a30.1,30.1,0,0,1,26.827-18.887v-15.968l-24.332-33.88a4.355,4.355,0,0,0-3.528-1.81H793.86a1.114,1.114,0,1,1,0-2.227H815.6a6.583,6.583,0,0,1,5.337,2.738l24.542,34.171a1.116,1.116,0,0,1,.209.65v17.419a1.114,1.114,0,0,1-1.114,1.114,27.873,27.873,0,0,0-26.133,18.181A1.112,1.112,0,0,1,817.393,2425.539Zm8.238-36.327H787.384a5.648,5.648,0,0,1-5.642-5.642v-20.579a5.032,5.032,0,0,1,5.026-5.027h24.773a7.066,7.066,0,0,1,5.726,2.938l13.35,18.589a6.139,6.139,0,0,1-4.986,9.721Zm-38.863-29.02a2.8,2.8,0,0,0-2.8,2.8v20.579a3.417,3.417,0,0,0,3.414,3.414H825.63a3.912,3.912,0,0,0,3.178-6.194l-13.35-18.589a4.835,4.835,0,0,0-3.917-2.009Zm7.242,40.923h-5.057a7.218,7.218,0,0,1-7.211-7.21,1.114,1.114,0,0,1,1.114-1.113h17.25a1.113,1.113,0,0,1,1.114,1.113A7.218,7.218,0,0,1,794.01,2401.115Zm-9.915-6.1a4.993,4.993,0,0,0,4.858,3.869h5.057a4.992,4.992,0,0,0,4.857-3.869Z" transform="translate(-774.316 -2350.539)" fill="#0074d3"/>
</svg>
