<svg height="512pt" viewBox="-12 0 512 512" width="512pt" xmlns="http://www.w3.org/2000/svg"><path d="m225.574219 512h-217.96875c-4.199219 0-7.605469-3.40625-7.605469-7.605469v-459.539062c0-24.734375 20.121094-44.855469 44.855469-44.855469h58.144531c4.199219 0 7.601562 3.40625 7.601562 7.605469s-3.402343 7.601562-7.601562 7.601562h-58.144531c-16.347657 0-29.648438 13.300781-29.648438 29.648438v451.9375h210.367188c4.199219 0 7.605469 3.402343 7.605469 7.601562s-3.40625 7.605469-7.605469 7.605469zm0 0"/><path d="m294.070312 512h-38.078124c-4.199219 0-7.601563-3.40625-7.601563-7.605469s3.402344-7.601562 7.601563-7.601562h32.859374c14.71875-36.808594 39.578126-68.328125 72.152344-91.398438 32.726563-23.183593 70.953125-36.089843 110.988282-37.539062v-109.003907l-166.105469-231.289062c-5.558594-7.738281-14.558594-12.355469-24.082031-12.355469h-148.386719c-4.203125 0-7.605469-3.402343-7.605469-7.601562s3.402344-7.605469 7.605469-7.605469h148.386719c14.40625 0 28.027343 6.988281 36.433593 18.691406l167.535157 233.277344c.929687 1.292969 1.425781 2.84375 1.425781 4.4375v118.914062c0 4.199219-3.402344 7.605469-7.601563 7.605469-39.621094 0-77.589844 12.058594-109.804687 34.878907-31.515625 22.324218-55.234375 53.179687-68.59375 89.234374-1.105469 2.980469-3.949219 4.960938-7.128907 4.960938zm0 0"/><path d="m350.304688 264.007812h-261.097657c-21.238281 0-38.515625-17.277343-38.515625-38.511718v-140.492188c0-18.917968 15.394532-34.3125 34.3125-34.3125h169.117188c15.460937 0 30.070312 7.5 39.089844 20.054688l91.136718 126.898437c9.214844 12.828125 10.457032 29.527344 3.25 43.582031-7.210937 14.050782-21.5 22.78125-37.292968 22.78125zm-265.300782-198.105468c-10.535156 0-19.101562 8.566406-19.101562 19.101562v140.492188c0 12.851562 10.453125 23.304687 23.304687 23.304687h261.09375c10.21875 0 19.101563-5.425781 23.765625-14.515625 4.660156-9.089844 3.886719-19.46875-2.070312-27.769531l-91.136719-126.898437c-6.167969-8.589844-16.164063-13.714844-26.738281-13.714844zm0 0"/><path d="m134.441406 345.269531h-34.523437c-27.144531 0-49.226563-22.082031-49.226563-49.222656 0-4.199219 3.40625-7.601563 7.605469-7.601563h117.761719c4.199218 0 7.605468 3.402344 7.605468 7.601563 0 27.140625-22.082031 49.222656-49.222656 49.222656zm-67.683594-41.617187c3.464844 15.105468 17.015626 26.410156 33.160157 26.410156h34.523437c16.140625 0 29.695313-11.304688 33.15625-26.410156zm0 0"/></svg>