<svg xmlns="http://www.w3.org/2000/svg" xmlns:xlink="http://www.w3.org/1999/xlink" width="27" height="63.441" viewBox="0 0 27 63.441">
  <defs>
    <clipPath id="clip-path">
      <rect id="Rectangle_61" data-name="Rectangle 61" width="27" height="63.441" transform="translate(1263 47.958)" fill="none"/>
    </clipPath>
  </defs>
  <g id="Shopping_cart" data-name="Shopping cart" transform="translate(-1263 -47.958)">
    <g id="Group_1044" data-name="Group 1044">
      <g id="Group_1043" data-name="Group 1043" clip-path="url(#clip-path)">
        <g id="Cart_icon_crane_" data-name="Cart icon (crane)">
          <path id="Path_1852" data-name="Path 1852" d="M1271.627,81.89a10.032,10.032,0,0,0,2.049.626l-2.682,4.836h2.166l2.582-4.656a11.327,11.327,0,0,0,2.592-.337l2.769,4.993h2.166l-3.643-6.57-.01-.018-3.445-6.211A1.049,1.049,0,0,1,1278,73.531l7.663,13.821h2.166l-4.356-7.857a11.366,11.366,0,0,0,3.47-8.183V69.044a3.67,3.67,0,1,0-7.339,0v2.268a4.042,4.042,0,0,1-.129,1.015,2.942,2.942,0,0,0-5.159,2.712,2.768,2.768,0,0,1,.088-4.96,8.564,8.564,0,0,0,4.844-7.739V58.452a.947.947,0,0,0-.947-.948h-5.444a.947.947,0,0,0-.947.948V62.34a1.187,1.187,0,0,1-.634,1.089,10.01,10.01,0,0,0-2.926,2.1.948.948,0,1,0,1.359,1.321,8.126,8.126,0,0,1,2.375-1.7,3.091,3.091,0,0,0,1.72-2.8V59.4h3.551V62.34a6.659,6.659,0,0,1-3.758,6.023,4.664,4.664,0,0,0,1.9,8.879l1.879,3.388a9.517,9.517,0,0,1-1.794.172,8.208,8.208,0,0,1-7.665-11.133.947.947,0,1,0-1.768-.677,10.1,10.1,0,0,0,3.814,11.991l-3.532,6.369h2.166Zm9.874-10.578V69.044a1.776,1.776,0,1,1,3.551,0v2.268a9.467,9.467,0,0,1-2.535,6.454l-1.874-3.382A5.871,5.871,0,0,0,1281.5,71.312Z" fill="#141414"/>
          <rect id="Rectangle_58" data-name="Rectangle 58" width="7.35" height="13.944" transform="translate(1271.904 45.221)" fill="#141414"/>
          <rect id="Rectangle_59" data-name="Rectangle 59" width="3.524" height="15.137" transform="translate(1273.817 45.179)" fill="#fff"/>
          <g id="Rectangle_60" data-name="Rectangle 60" transform="translate(1263 87.352)" fill="none" stroke="#514c4e" stroke-miterlimit="10" stroke-width="1.785">
            <rect width="27" height="24.047" stroke="none"/>
            <rect x="0.893" y="0.893" width="25.215" height="22.262" fill="none"/>
          </g>
        </g>
      </g>
    </g>
  </g>
</svg>
