<svg xmlns="http://www.w3.org/2000/svg" width="30" height="30" viewBox="0 0 30 30">
  <path id="Phone_Icon" data-name="Phone Icon" d="M584.339,1229.145a5.608,5.608,0,0,1-2.6,2.259,8.138,8.138,0,0,1-3.963,1.086,16.4,16.4,0,0,1-5.582-1.47,19.956,19.956,0,0,1-3.729-1.768,35.957,35.957,0,0,1-10.227-10.228,19.863,19.863,0,0,1-1.769-3.728,16.425,16.425,0,0,1-1.47-5.583,8.146,8.146,0,0,1,1.087-3.963,5.61,5.61,0,0,1,2.258-2.6,9.473,9.473,0,0,1,2.962-.661,1.085,1.085,0,0,1,.447.064c.448.15.916,1.194,1.129,1.62.682,1.214,1.343,2.45,2.046,3.643.341.554.98,1.236.98,1.9,0,1.3-3.856,3.2-3.856,4.347a4.59,4.59,0,0,0,.83,1.833,21.2,21.2,0,0,0,8.715,8.714,4.582,4.582,0,0,0,1.832.831c1.151,0,3.047-3.857,4.347-3.857.66,0,1.342.639,1.9.981,1.193.7,2.429,1.363,3.644,2.045.426.213,1.47.682,1.619,1.129a1.089,1.089,0,0,1,.064.448A9.465,9.465,0,0,1,584.339,1229.145Z" transform="translate(-555 -1202.49)" fill="#fff"/>
</svg>
