<svg xmlns="http://www.w3.org/2000/svg" width="30" height="29.999" viewBox="0 0 30 29.999">
  <path id="Mail_Icon" data-name="Mail Icon" d="M972.188,1232.49H947.812a2.812,2.812,0,0,1-2.812-2.812v-15.427a3.18,3.18,0,0,1,1.077-2.213c1.46-1.144,2.666-2.072,9.621-7.12.986-.718,2.942-2.448,4.3-2.427,1.359-.021,3.316,1.709,4.3,2.427,6.954,5.047,8.162,5.977,9.621,7.12a3.18,3.18,0,0,1,1.077,2.213v15.427A2.812,2.812,0,0,1,972.188,1232.49Zm-1.7-14.444c-1.339.989-3.25,2.385-6.186,4.517-.986.719-2.942,2.448-4.3,2.427-1.36.02-3.314-1.707-4.3-2.427-2.936-2.131-4.847-3.528-6.186-4.517a.47.47,0,0,0-.665.112l-.531.773a.557.557,0,0,0-.082.266.529.529,0,0,0,.19.377c1.341.99,3.249,2.384,6.17,4.5,1.188.866,3.312,2.8,5.406,2.787,2.093.014,4.216-1.92,5.406-2.787,2.921-2.12,4.829-3.514,6.17-4.5a.529.529,0,0,0,.19-.377.557.557,0,0,0-.082-.266l-.532-.773A.469.469,0,0,0,970.488,1218.046Z" transform="translate(-945 -1202.491)" fill="#fff"/>
</svg>
