<svg xmlns="http://www.w3.org/2000/svg" width="95.904" height="30.473" viewBox="0 0 95.904 30.473">
  <g id="Discover_network" data-name="Discover network" transform="translate(-690 -1597.815)">
    <g id="Group_928" data-name="Group 928">
      <circle id="Ellipse_2331" data-name="Ellipse 2331" cx="8.044" cy="8.044" r="8.044" transform="translate(732.847 1597.969)" fill="#ef9122"/>
      <path id="Path_2916" data-name="Path 2916" d="M732.847,1606.013a8.044,8.044,0,1,1,8.044,8.044" fill="#f26e21"/>
      <path id="Path_2917" data-name="Path 2917" d="M735.322,1600.29a7.985,7.985,0,0,1,11.292,11.292" fill="#f44500"/>
      <path id="Path_2918" data-name="Path 2918" d="M694.331,1598.434H690v15.159h4.331a8.39,8.39,0,0,0,5.414-1.7,7.647,7.647,0,0,0,2.784-5.878C702.529,1601.527,699.281,1598.434,694.331,1598.434Zm3.558,11.446a5.943,5.943,0,0,1-4.022,1.238h-.928v-10.055h.773c1.857,0,3.094.31,4.022,1.238a4.94,4.94,0,0,1,1.7,3.712A4.625,4.625,0,0,1,697.889,1609.88Z" fill="#595a5b"/>
      <rect id="SVGCleanerId_0" data-name="SVGCleanerId 0" width="2.939" height="15.159" transform="translate(703.922 1598.434)" fill="#595a5b"/>
      <path id="Path_2919" data-name="Path 2919" d="M714.285,1604.312c-1.856-.619-2.32-1.083-2.32-1.857a1.958,1.958,0,0,1,2.166-1.7,2.993,2.993,0,0,1,2.475,1.237l1.546-2.011a6.74,6.74,0,0,0-4.485-1.7,4.539,4.539,0,0,0-4.8,4.331c0,2.166.929,3.094,3.713,4.177a6.016,6.016,0,0,1,2.011.928,1.7,1.7,0,0,1,.928,1.546,2.156,2.156,0,0,1-2.32,2.166,3.607,3.607,0,0,1-3.249-2.011l-1.856,1.856a6.066,6.066,0,0,0,5.259,2.939c3.094,0,5.26-2.011,5.26-4.95C718.617,1606.632,717.688,1605.549,714.285,1604.312Z" fill="#595a5b"/>
      <path id="Path_2920" data-name="Path 2920" d="M719.545,1606.013a7.859,7.859,0,0,0,8.043,7.889,8.749,8.749,0,0,0,3.713-.928v-3.558a4.81,4.81,0,0,1-3.558,1.7,5,5,0,0,1-5.1-5.26,5.058,5.058,0,0,1,4.95-5.259,4.878,4.878,0,0,1,3.713,1.7v-3.558a7.774,7.774,0,0,0-3.713-.928A8.549,8.549,0,0,0,719.545,1606.013Z" fill="#3b3d3f"/>
      <path id="Path_2921" data-name="Path 2921" d="M755.586,1608.643l-4.022-10.209h-3.248l6.342,15.623h1.7l6.651-15.623h-3.248Z"/>
      <path id="Path_2922" data-name="Path 2922" d="M764.248,1613.593h8.508v-2.475h-5.414v-4.177H772.6v-2.63h-5.259v-3.248h5.414v-2.63h-8.508Z"/>
      <g id="Group_923" data-name="Group 923">
        <path id="Path_2923" data-name="Path 2923" d="M781.109,1607.251a4.082,4.082,0,0,0,3.558-4.332c0-2.784-2.011-4.485-5.414-4.485h-4.486v15.159h2.939v-6.033h.464l4.176,6.033H785.9Zm-2.475-1.857h-.928v-4.64h.928c1.856,0,2.939.773,2.939,2.32S780.49,1605.394,778.634,1605.394Z" fill="#595a5b"/>
        <path id="Path_2924" data-name="Path 2924" d="M694.331,1598.434H690v15.159h4.331a8.39,8.39,0,0,0,5.414-1.7,7.647,7.647,0,0,0,2.784-5.878C702.529,1601.527,699.281,1598.434,694.331,1598.434Zm3.558,11.446a5.943,5.943,0,0,1-4.022,1.238h-.928v-10.055h.773c1.857,0,3.094.31,4.022,1.238a4.94,4.94,0,0,1,1.7,3.712A4.625,4.625,0,0,1,697.889,1609.88Z" fill="#595a5b"/>
      </g>
      <g id="Group_924" data-name="Group 924">
        <rect id="SVGCleanerId_0-2" data-name="SVGCleanerId 0" width="2.939" height="15.159" transform="translate(703.922 1598.434)" fill="#595a5b"/>
      </g>
      <g id="Group_925" data-name="Group 925">
        <path id="Path_2925" data-name="Path 2925" d="M714.285,1604.312c-1.856-.619-2.32-1.083-2.32-1.857a1.958,1.958,0,0,1,2.166-1.7,2.993,2.993,0,0,1,2.475,1.237l1.546-2.011a6.74,6.74,0,0,0-4.485-1.7,4.539,4.539,0,0,0-4.8,4.331c0,2.166.929,3.094,3.713,4.177a6.016,6.016,0,0,1,2.011.928,1.7,1.7,0,0,1,.928,1.546,2.156,2.156,0,0,1-2.32,2.166,3.607,3.607,0,0,1-3.249-2.011l-1.856,1.856a6.066,6.066,0,0,0,5.259,2.939c3.094,0,5.26-2.011,5.26-4.95C718.617,1606.632,717.688,1605.549,714.285,1604.312Z" fill="#595a5b"/>
        <path id="Path_2926" data-name="Path 2926" d="M727.743,1613.9a8.745,8.745,0,0,0,3.712-.928v-3.558a4.807,4.807,0,0,1-3.557,1.7,5,5,0,0,1-5.1-5.26,5.787,5.787,0,0,1,1.547-3.867l-2.011-2.011a8.051,8.051,0,0,0-2.63,5.878A7.716,7.716,0,0,0,727.743,1613.9Z" fill="#595a5b"/>
      </g>
      <path id="Path_2927" data-name="Path 2927" d="M781.109,1607.251a4.082,4.082,0,0,0,3.558-4.332c0-2.784-2.011-4.485-5.414-4.485h-4.486v15.159h2.939v-6.033h.464l4.176,6.033H785.9Zm-2.475-1.857h-.928v-4.64h.928c1.856,0,2.939.773,2.939,2.32S780.49,1605.394,778.634,1605.394Z"/>
      <g id="Group_926" data-name="Group 926">
        <path id="Path_2928" data-name="Path 2928" d="M711.81,1627.669v-8.508l5.878,6.033v-5.569h1.238v8.508l-5.878-6.033v5.569Z" fill="#f26e21"/>
        <path id="Path_2929" data-name="Path 2929" d="M725.113,1620.863h-3.248v1.856h3.094v1.237h-3.094v2.63h3.248v1.083h-4.486v-8.044h4.486Z" fill="#f26e21"/>
        <path id="Path_2930" data-name="Path 2930" d="M728.98,1620.863v6.806h-1.237v-6.806h-1.856v-1.083h4.95v1.083Z" fill="#f26e21"/>
        <path id="Path_2931" data-name="Path 2931" d="M732.693,1619.78l2.011,5.414,2.165-5.723,2.011,5.723,2.166-5.414h1.547l-3.558,8.508-2.011-5.724-2.166,5.724-3.4-8.508Z" fill="#f26e21"/>
        <path id="Path_2932" data-name="Path 2932" d="M742.747,1623.647a4.157,4.157,0,1,1,4.177,4.177,3.731,3.731,0,0,1-2.785-1.083A3.69,3.69,0,0,1,742.747,1623.647Zm1.238,0a2.809,2.809,0,0,0,.928,2.166,2.725,2.725,0,0,0,2.011.928,3.055,3.055,0,0,0,2.165-.928,3.094,3.094,0,0,0-2.165-5.26,3.058,3.058,0,0,0-2.166.928A3.7,3.7,0,0,0,743.985,1623.647Z" fill="#f26e21"/>
        <path id="Path_2933" data-name="Path 2933" d="M755.431,1624.266l2.475,3.4h-1.547l-2.32-3.249h-.155v3.249h-1.237v-8.044h1.392a3.21,3.21,0,0,1,2.32.619,2.485,2.485,0,0,1,.774,1.7,1.894,1.894,0,0,1-.464,1.392A1.453,1.453,0,0,1,755.431,1624.266Zm-1.547-.928h.31c1.083,0,1.7-.464,1.7-1.238s-.618-1.237-1.7-1.237h-.464v2.475Z" fill="#f26e21"/>
        <path id="Path_2934" data-name="Path 2934" d="M760.227,1622.874l3.093-3.249h1.547l-3.558,3.558,3.558,4.331H763.32l-2.939-3.558-.309.31v3.248h-1.238v-8.043h1.238v3.4Z" fill="#f26e21"/>
      </g>
      <g id="Group_927" data-name="Group 927">
        <path id="Path_2935" data-name="Path 2935" d="M770.126,1611.118h-2.784v-2.784l-3.094-3.094v8.353H772.6Z" fill="#3b3d3f"/>
        <path id="Path_2936" data-name="Path 2936" d="M758.989,1599.98l-3.4,8.662-4.022-10.209h-3.248l6.342,15.623h1.7l4.95-11.756Z" fill="#3b3d3f"/>
      </g>
    </g>
  </g>
</svg>
