<svg xmlns="http://www.w3.org/2000/svg" width="86.407" height="63.636" viewBox="0 0 86.407 63.636">
  <g id="Icon" transform="translate(-586.796 -358.064)">
    <path id="Path_2679" data-name="Path 2679" d="M601.767,402c1.081,0,.88-.125,10.7-2.7a1.267,1.267,0,0,0,.9-1.55l-1.92-7.163a1.266,1.266,0,0,0-1.55-.895l-12.834,3.439a1.267,1.267,0,0,0-.9,1.55l1.021,3.808A4.747,4.747,0,0,0,601.767,402Zm8.826-4.819-5.658,1.516-1.264-4.718,5.658-1.516Zm-9.367-2.547,1.264,4.718-.153.041a2.21,2.21,0,0,1-2.7-1.561l-.693-2.585Z" fill="#0074d3"/>
    <path id="Path_2680" data-name="Path 2680" d="M637.827,391.194a1.267,1.267,0,0,0,1.55.895l9.479-2.54a4.738,4.738,0,0,0,3.351-5.8l-1.02-3.808a1.265,1.265,0,0,0-1.55-.9L636.8,382.481a1.264,1.264,0,0,0-.895,1.55Zm11.935-6.794a2.21,2.21,0,0,1-1.561,2.7l-.153.041-1.264-4.718,2.286-.612Zm-5.424-1.318L645.6,387.8l-5.657,1.516-1.264-4.718Z" fill="#0074d3"/>
    <path id="Path_2681" data-name="Path 2681" d="M613.613,392.151a7.352,7.352,0,0,0,9.007,5.2l6.994-1.874a7.35,7.35,0,0,0,5.2-9.007l-.66-2.464a1.265,1.265,0,0,0-1.55-.894l-18.756,5.025a1.266,1.266,0,0,0-.9,1.551Zm18.424-6.267.332,1.241a4.821,4.821,0,0,1-3.41,5.907l-6.994,1.874a4.821,4.821,0,0,1-5.907-3.411l-.332-1.24Z" fill="#0074d3"/>
    <path id="Path_2682" data-name="Path 2682" d="M621.95,392.846c.3,0,.119,0,5.686-1.479a1.266,1.266,0,1,0-.656-2.445l-5.357,1.435a1.266,1.266,0,0,0,.327,2.489Z" fill="#0074d3"/>
    <path id="Path_2683" data-name="Path 2683" d="M669.668,406.272H659.383a1.266,1.266,0,0,0,0,2.532h10.285a1,1,0,0,1,1,1v.732H650.724v-.732a1,1,0,0,1,1-1h1.748a1.266,1.266,0,0,0,0-2.532h-1.748a3.54,3.54,0,0,0-3.536,3.536v8.355a3.54,3.54,0,0,0,3.536,3.536h17.94a3.539,3.539,0,0,0,3.535-3.536v-8.355a3.539,3.539,0,0,0-3.535-3.536Zm1,6.8V414.9H650.724v-1.829Zm-1,6.1h-17.94a1,1,0,0,1-1-1v-.732h19.948v.732a1,1,0,0,1-1,1Z" fill="#0074d3"/>
    <path id="Path_2684" data-name="Path 2684" d="M644.451,419.167h-.96v-7.238a2.732,2.732,0,0,0-1.538-2.456v-4.894l20.014-5.363a2.828,2.828,0,0,0,2-3.465l-1.1-4.112a2.838,2.838,0,0,0-2.28-2.062l-3.347-10.311a9.1,9.1,0,0,0-4.307-5.191,4.213,4.213,0,0,0-2.548-8.023l-3.261.874a4.372,4.372,0,0,0-2.844,2.407l-4.132-6.925a8.946,8.946,0,0,0-9.961-4.043L603.569,365.5a8.948,8.948,0,0,0-6.606,8.482l-.115,8.063a4.366,4.366,0,0,0-3.667-.662l-3.26.874a4.213,4.213,0,0,0,1.8,8.222,9.093,9.093,0,0,0-1.135,6.649l2.257,10.605a2.833,2.833,0,0,0-.943,2.924l1.1,4.111a2.833,2.833,0,0,0,3.465,2l.892-.239.683,2.551a3.541,3.541,0,0,0,3.409,2.622c.823,0,.652-.09,8.992-2.284a3.539,3.539,0,0,0,2.5-4.33l-.684-2.552,22.931-6.144v3.083a2.734,2.734,0,0,0-1.539,2.456v7.239h-.96a1.266,1.266,0,1,0,0,2.531h11.756a1.266,1.266,0,0,0,0-2.532Zm-8.661-20.581,1.255,4.687-16.963,4.545-1.256-4.687,16.964-4.545Zm25.7-1.954a.293.293,0,0,1-.18.139l-21.821,5.847-1.256-4.687,21.77-5.833h0l.051-.014a.3.3,0,0,1,.364.21l1.1,4.112A.294.294,0,0,1,661.492,396.632Zm-13.714-27.261,3.261-.874a1.682,1.682,0,0,1,.871,3.25l-5.039,1.35-.395-1.472a1.844,1.844,0,0,1,1.3-2.254Zm-43.554-1.429,26.617-7.132a6.406,6.406,0,0,1,7.132,2.895l6.058,10.153-2.624.7-5.819-9.755a3.416,3.416,0,0,0-3.8-1.543l-19.17,5.136a1.266,1.266,0,0,0,.655,2.446l19.17-5.137a.875.875,0,0,1,.975.395l5.452,9.139-34.376,9.211.153-10.641a.873.873,0,0,1,.646-.829l2.171-.582a1.266,1.266,0,0,0-.656-2.445l-2.17.582a3.415,3.415,0,0,0-2.523,3.238l-.162,11.357-2.624.7.169-11.822a6.408,6.408,0,0,1,4.73-6.073Zm-12.778,20.006a1.682,1.682,0,1,1-.87-3.25c3.341-.874,3.314-.936,3.737-.936a1.844,1.844,0,0,1,1.778,1.364l.394,1.471Zm4.37,26.372a.3.3,0,0,1-.364-.21L594.35,410a.3.3,0,0,1,.21-.365l.066-.017,2.6-.7a1.266,1.266,0,0,0-.655-2.446l-1.324.355L593.067,396.6a6.583,6.583,0,0,1,4.737-7.732l49.062-13.146a6.584,6.584,0,0,1,7.965,4.328l3.23,9.951c-2.486.665-51.272,13.738-55.734,14.933a1.266,1.266,0,0,0,.655,2.446l13.4-3.591,1.256,4.687-21.821,5.847Zm9.057,3.968-.943-3.521,1.766-.473.944,3.521Zm-3.914.744a.994.994,0,0,1-.467-.609l-.684-2.551,1.677-.45.943,3.521c-.495.089-.939.4-1.469.089Zm8.833-2.062-.707.19-.944-3.521,1.677-.45.684,2.551a1,1,0,0,1-.71,1.23Zm29.63-11.713V409.2h-1.7v-3.488Zm-3.235,13.91v-7.238a.2.2,0,0,1,.2-.2h4.377a.2.2,0,0,1,.2.2v7.239h-4.773Z" fill="#0074d3"/>
  </g>
</svg>
