<svg id="Capa_1" enable-background="new 0 0 512.003 512.003" height="512" viewBox="0 0 512.003 512.003" width="512" xmlns="http://www.w3.org/2000/svg"><path d="m88.706 327.808c6.408 0 5.218-.74 63.426-16.01 4.001-1.072 6.375-5.185 5.303-9.186l-11.372-42.442c-1.072-4.001-5.188-6.378-9.186-5.303-4.366 1.17-71.689 19.209-76.046 20.376-4.001 1.072-6.375 5.185-5.303 9.186l6.045 22.563c3.359 12.531 14.734 20.816 27.133 20.816zm52.299-28.558-33.523 8.983-7.49-27.954 33.524-8.982zm-55.503-15.088 7.49 27.955-.908.243c-6.969 1.869-14.155-2.283-16.021-9.251l-4.104-15.318z"/><path d="m302.382 263.775c1.076 4.016 5.204 6.374 9.186 5.303 14.094-3.776 42.416-11.365 56.167-15.05 7.245-1.941 13.301-6.588 17.051-13.084s4.747-14.063 2.805-21.309l-6.045-22.563c-.515-1.921-1.772-3.56-3.495-4.554-1.723-.995-3.77-1.264-5.691-.749-22.049 5.908-54.36 14.566-76.046 20.377-1.921.515-3.56 1.771-4.554 3.494s-1.264 3.77-.75 5.691zm70.72-40.257c1.867 6.967-2.283 14.154-9.25 16.021l-.907.243-7.49-27.954 13.544-3.629zm-32.138-7.807 7.49 27.953-33.524 8.983-7.49-27.953z"/><path d="m158.9 269.445c6.228 23.244 30.092 37.051 53.371 30.813l41.444-11.105c23.263-6.231 37.048-30.104 30.814-53.37l-3.911-14.596c-.515-1.921-1.772-3.56-3.495-4.554-1.723-.995-3.77-1.267-5.691-.749l-111.14 29.78c-4.001 1.072-6.375 5.185-5.303 9.186zm109.171-37.131 1.969 7.352c4.088 15.255-4.949 30.911-20.207 34.999l-41.444 11.105c-15.259 4.085-30.911-4.95-34.999-20.208l-1.97-7.35z"/><path d="m208.302 273.565c1.781 0 .704-.016 33.69-8.764 4.001-1.072 6.375-5.185 5.304-9.186-1.072-4.001-5.186-6.379-9.186-5.303l-31.744 8.506c-4.001 1.072-6.375 5.185-5.304 9.186.898 3.351 3.929 5.561 7.24 5.561z"/><path d="m491.054 353.124h-60.941c-4.142 0-7.5 3.357-7.5 7.5s3.358 7.5 7.5 7.5h60.941c3.281 0 5.95 2.669 5.95 5.949v4.338h-118.202v-4.338c0-3.28 2.669-5.949 5.95-5.949h10.36c4.142 0 7.5-3.357 7.5-7.5s-3.358-7.5-7.5-7.5h-10.36c-11.552 0-20.95 9.397-20.95 20.949v49.511c0 11.552 9.398 20.949 20.95 20.949h106.302c11.552 0 20.95-9.397 20.95-20.949v-49.511c-.001-11.551-9.399-20.949-20.95-20.949zm5.949 40.287v10.835h-118.201v-10.835zm-5.949 36.122h-106.302c-3.281 0-5.95-2.669-5.95-5.949v-4.338h118.201v4.338c0 3.281-2.669 5.949-5.949 5.949z"/><path d="m341.634 429.533h-5.688v-42.893c0-6.39-3.725-11.927-9.117-14.553v-28.999l118.593-31.777c4.325-1.158 7.94-3.933 10.179-7.811s2.833-8.396 1.675-12.721l-6.528-24.365c-1.159-4.325-3.933-7.939-7.811-10.179-1.79-1.034-3.716-1.717-5.697-2.039l-19.834-61.098c-4.43-13.646-13.797-24.365-25.522-30.757 11.971-4.403 18.845-17.333 15.481-29.889-3.563-13.296-17.28-21.221-30.578-17.653l-19.323 5.178c-7.752 2.078-13.743 7.481-16.849 14.264l-24.484-41.038c-12.045-20.19-36.319-30.04-59.028-23.956l-157.718 42.261c-22.709 6.084-38.805 26.753-39.142 50.261l-.684 47.78c-6.081-4.321-13.97-6.005-21.725-3.927l-19.322 5.178c-13.33 3.571-21.225 17.248-17.654 30.577 3.043 11.355 13.288 18.516 24.075 18.516 1.423 0 2.853-.124 4.275-.371-6.957 11.398-9.709 25.364-6.723 39.397l13.375 62.841c-4.943 4.048-7.35 10.762-5.592 17.324l6.529 24.365c2.385 8.9 11.574 14.252 20.531 11.853l5.282-1.415 4.051 15.118c1.448 5.405 4.915 9.923 9.761 12.721 3.228 1.863 6.81 2.815 10.44 2.815 4.871 0 3.86-.537 53.28-13.537 11.158-2.99 17.803-14.5 14.813-25.658l-4.051-15.118c13.533-3.626 122.889-32.928 135.874-36.407v18.268c-5.392 2.626-9.117 8.163-9.117 14.553v42.894h-5.688c-4.142 0-7.5 3.357-7.5 7.5s3.358 7.5 7.5 7.5h69.661c4.142 0 7.5-3.357 7.5-7.5s-3.358-7.503-7.5-7.503zm-51.325-121.955 7.441 27.771c-15.324 4.106-91.468 24.509-100.515 26.934l-7.441-27.771c8.69-2.329 87.151-23.353 100.515-26.934zm152.302-11.578c-.167.289-.488.666-1.071.822-10.136 2.716-111.593 29.901-129.301 34.646l-7.441-27.772 128.997-34.564c.001 0 .003-.001.004-.001l.301-.081c.583-.156 1.049.009 1.338.177.289.166.666.487.821 1.07l6.529 24.365c.155.583-.011 1.05-.177 1.338zm-81.264-161.535 19.322-5.178c.861-.23 1.725-.34 2.577-.34 4.4 0 8.438 2.94 9.629 7.388 1.422 5.308-1.739 10.784-7.047 12.207l-29.859 8-2.336-8.719c-1.556-5.808 1.905-11.8 7.714-13.358zm-258.08-8.469 157.718-42.261c16.261-4.355 33.64 2.696 42.264 17.153l35.893 60.162-15.546 4.166-34.484-57.801c-4.598-7.708-13.867-11.473-22.537-9.146l-113.595 30.438c-4.001 1.071-6.375 5.185-5.304 9.186 1.072 4 5.187 6.377 9.186 5.303l113.595-30.438c2.222-.595 4.595.369 5.773 2.344l32.306 54.15-203.692 54.579.903-63.049c.033-2.3 1.607-4.32 3.829-4.916l12.863-3.447c4.001-1.072 6.375-5.185 5.303-9.186s-5.186-6.379-9.186-5.303l-12.862 3.447c-8.671 2.322-14.816 10.214-14.945 19.189l-.964 67.299-15.547 4.166 1.003-70.049c.242-16.83 11.767-31.628 28.026-35.986zm-75.714 118.545c-5.334 1.426-10.783-1.738-12.206-7.048-1.426-5.32 1.725-10.779 7.047-12.206 19.798-5.18 19.639-5.55 22.143-5.55 4.815 0 9.234 3.218 10.539 8.085l2.336 8.718zm25.892 156.271c-.938.245-1.908-.308-2.159-1.247l-6.529-24.365c-.252-.939.308-1.909 1.247-2.161.006-.002.387-.104.392-.105l15.394-4.124c4.001-1.071 6.375-5.184 5.304-9.185-1.072-4.002-5.187-6.38-9.186-5.304l-7.848 2.102-12.904-60.63c-4.325-20.316 8.005-40.442 28.069-45.818 101.952-27.318-156.708 41.99 290.717-77.898 20.058-5.358 40.785 5.903 47.195 25.651l19.14 58.959c-14.727 3.946-303.813 81.406-330.253 88.491-4.001 1.071-6.375 5.185-5.304 9.186 1.072 4 5.182 6.377 9.186 5.303l79.398-21.275 7.442 27.772c-15.669 4.2-117.512 31.489-129.301 34.648zm53.67 23.511-5.591-20.865 10.465-2.804 5.591 20.865zm-23.194 4.41c-1.376-.794-2.36-2.077-2.771-3.612l-4.051-15.117 9.937-2.663 5.59 20.864c-2.932.528-5.567 2.338-8.705.528zm52.338-12.219-4.19 1.123-5.591-20.865 9.937-2.663 4.051 15.118c.849 3.169-1.038 6.437-4.207 7.287zm175.571-69.407v23.356h-10.051v-20.663zm-19.168 82.426v-42.893c0-.648.528-1.177 1.177-1.177h25.931c.649 0 1.177.528 1.177 1.177v42.894h-28.285z"/></svg>