<svg xmlns="http://www.w3.org/2000/svg" width="16" height="21.333" viewBox="0 0 16 21.333">
  <path id="Map_Marker_icon" data-name="Map Marker icon" d="M468.394,3113.17a8.188,8.188,0,0,0-8,8.433c0,4,5.5,10.567,7.2,12.534a.961.961,0,0,0,.8.366,1.018,1.018,0,0,0,.8-.366c1.7-1.934,7.2-8.6,7.2-12.534A8.189,8.189,0,0,0,468.394,3113.17Zm0,19.2c-3.034-3.567-6.234-8.267-6.234-10.767a6.248,6.248,0,1,1,12.467,0C474.627,3124.1,471.427,3128.8,468.394,3132.37Zm0-14.767a3.567,3.567,0,1,0,3.566,3.567A3.571,3.571,0,0,0,468.394,3117.6Zm0,5.334a1.767,1.767,0,1,1,1.766-1.767A1.779,1.779,0,0,1,468.394,3122.937Z" transform="translate(-460.394 -3113.17)" fill="#fff"/>
</svg>
