<svg xmlns="http://www.w3.org/2000/svg" width="19" height="12.666" viewBox="0 0 19 12.666">
  <path id="Email_icon" data-name="Email icon" d="M477.847,3076.247H461.969a1.585,1.585,0,0,0-1.575,1.575v9.515a1.586,1.586,0,0,0,1.575,1.576h15.848a1.587,1.587,0,0,0,1.576-1.576v-9.515A1.542,1.542,0,0,0,477.847,3076.247Zm-1.9,1.575-5.709,3.479a.631.631,0,0,1-.565,0l-5.8-3.479Zm-13.975,9.515v-8.8l6.809,4.133a1.838,1.838,0,0,0,1.1.327,1.777,1.777,0,0,0,1.1-.327l6.809-4.133v8.8Z" transform="translate(-460.394 -3076.247)" fill="#fff"/>
</svg>
