<svg xmlns="http://www.w3.org/2000/svg" width="17" height="16.151" viewBox="0 0 17 16.151">
  <path id="Phone_Icon" data-name="Phone Icon" d="M476.748,3046.357l-2.47-1.567a1.425,1.425,0,0,0-1.832.345l-.557.85a19.651,19.651,0,0,1-5.948-5.6l.93-.558a1.312,1.312,0,0,0,.557-.85,1.17,1.17,0,0,0-.212-.982l-1.62-2.337a1.389,1.389,0,0,0-1.779-.424l-2.363,1.274c-.133.08-.212.133-.345.212-1.779,1.912-.159,6.24,3.956,10.116,2.974,2.841,6.16,4.381,8.417,4.381a3.037,3.037,0,0,0,2.044-.637l.292-.292h0l1.355-2.124A1.253,1.253,0,0,0,476.748,3046.357Zm-2.124,3.159c-1.222,1.009-5.019-.265-8.63-3.664-3.557-3.4-4.885-7.009-3.823-8.151l2.2-1.275,1.566,2.257-.929.558a1.316,1.316,0,0,0-.558.849,1.172,1.172,0,0,0,.213.983,21.986,21.986,0,0,0,6.452,6.16,1.425,1.425,0,0,0,1.832-.345l.637-.93,2.416,1.487Z" transform="translate(-460.394 -3035.064)" fill="#fff"/>
</svg>
