<svg xmlns="http://www.w3.org/2000/svg" width="3.75" height="9.999" viewBox="0 0 3.75 9.999">
  <path id="Path_2114" data-name="Path 2114" d="M1097.4,239.224V236.4h-.391a.39.39,0,0,1-.39-.391v-.933a.39.39,0,0,1,.39-.39h2.188a.39.39,0,0,1,.39.39v4.145h.391a.392.392,0,0,1,.391.391v.933a.391.391,0,0,1-.391.39h-2.969a.39.39,0,0,1-.39-.39v-.933a.39.39,0,0,1,.39-.391Zm2.5-6.879a1.406,1.406,0,1,1-1.406-1.406A1.406,1.406,0,0,1,1099.9,232.345Z" transform="translate(-1096.616 -230.939)" fill="#fff"/>
</svg>
