<svg xmlns="http://www.w3.org/2000/svg" width="18" height="12" viewBox="0 0 18 12">
  <path id="Email_icon" data-name="Email icon" d="M1142.776,19h-15.041a1.5,1.5,0,0,0-1.493,1.493v9.014A1.5,1.5,0,0,0,1127.735,31h15.013a1.5,1.5,0,0,0,1.493-1.493V20.493A1.461,1.461,0,0,0,1142.776,19Zm-1.8,1.493-5.408,3.3a.6.6,0,0,1-.535,0l-5.493-3.3Zm-13.238,9.014V21.169l6.45,3.916a1.743,1.743,0,0,0,1.042.309,1.686,1.686,0,0,0,1.042-.309l6.451-3.916v8.338Z" transform="translate(-1126.242 -19)" fill="#fff"/>
</svg>
