<svg xmlns="http://www.w3.org/2000/svg" width="63.484" height="38.091" viewBox="0 0 63.484 38.091">
  <g id="Mastercard" transform="translate(-1148.501 -1594.006)">
    <g id="Group_911" data-name="Group 911">
      <path id="Path_2848" data-name="Path 2848" d="M1211.985,1613.051a19.045,19.045,0,1,1-38.09,0h0a19.045,19.045,0,1,1,38.09,0Z" fill="#ffb600"/>
      <path id="Path_2849" data-name="Path 2849" d="M1192.94,1594.006a19.094,19.094,0,0,1,19.045,19.045h0a19.045,19.045,0,1,1-38.09,0" fill="#f7981d"/>
      <path id="Path_2850" data-name="Path 2850" d="M1192.94,1594.006a19.094,19.094,0,0,1,19.045,19.045h0a19.03,19.03,0,0,1-19.045,19.046" fill="#ff8500"/>
      <path id="Path_2851" data-name="Path 2851" d="M1167.345,1594.006a19.046,19.046,0,0,0,.2,38.091,19.268,19.268,0,0,0,12.8-4.938h0a18.162,18.162,0,0,0,1.914-2.015h-3.93a23.444,23.444,0,0,1-1.41-1.915h6.751a13,13,0,0,0,1.109-2.015h-8.969a12.063,12.063,0,0,1-.806-2.016h10.48a20,20,0,0,0,1.008-6.046,26.087,26.087,0,0,0-.4-4.031H1174.4a14.867,14.867,0,0,1,.5-2.015h10.48a11.985,11.985,0,0,0-.806-2.016h-8.868a20.134,20.134,0,0,1,1.109-2.015h6.751a9.553,9.553,0,0,0-1.511-2.015h-3.729a17.214,17.214,0,0,1,1.915-1.915,18.594,18.594,0,0,0-12.8-4.938C1167.445,1594.006,1167.445,1594.006,1167.345,1594.006Z" fill="#ff5050"/>
      <path id="Path_2852" data-name="Path 2852" d="M1148.5,1613.051a19.03,19.03,0,0,0,19.045,19.046,19.268,19.268,0,0,0,12.8-4.938h0a18.162,18.162,0,0,0,1.914-2.015h-3.93a23.444,23.444,0,0,1-1.41-1.915h6.751a13,13,0,0,0,1.109-2.015h-8.969a12.063,12.063,0,0,1-.806-2.016h10.48a20,20,0,0,0,1.008-6.046,26.087,26.087,0,0,0-.4-4.031H1174.4a14.867,14.867,0,0,1,.5-2.015h10.48a11.985,11.985,0,0,0-.806-2.016h-8.868a20.134,20.134,0,0,1,1.109-2.015h6.751a9.553,9.553,0,0,0-1.511-2.015h-3.729a17.214,17.214,0,0,1,1.915-1.915,18.594,18.594,0,0,0-12.8-4.938h-.1" fill="#e52836"/>
      <path id="Path_2853" data-name="Path 2853" d="M1167.546,1632.1a19.268,19.268,0,0,0,12.8-4.938h0a18.162,18.162,0,0,0,1.914-2.015h-3.93a23.444,23.444,0,0,1-1.41-1.915h6.751a13,13,0,0,0,1.109-2.015h-8.969a12.063,12.063,0,0,1-.806-2.016h10.48a20,20,0,0,0,1.008-6.046,26.087,26.087,0,0,0-.4-4.031H1174.4a14.867,14.867,0,0,1,.5-2.015h10.48a11.985,11.985,0,0,0-.806-2.016h-8.868a20.134,20.134,0,0,1,1.109-2.015h6.751a9.553,9.553,0,0,0-1.511-2.015h-3.729a17.214,17.214,0,0,1,1.915-1.915,18.594,18.594,0,0,0-12.8-4.938h-.1" fill="#cb2026"/>
      <g id="Group_909" data-name="Group 909">
        <path id="Path_2854" data-name="Path 2854" d="M1174.3,1617.888l.3-1.713a4.348,4.348,0,0,1-.5.1c-.7,0-.806-.4-.7-.6l.6-3.527h1.109l.3-1.914H1174.4l.2-1.21h-2.015s-1.21,6.651-1.21,7.457a1.513,1.513,0,0,0,1.613,1.713A3.094,3.094,0,0,0,1174.3,1617.888Z" fill="#fff"/>
        <path id="Path_2855" data-name="Path 2855" d="M1175,1614.664a3.2,3.2,0,0,0,3.527,3.526,5.238,5.238,0,0,0,2.116-.3l.4-1.914a6.044,6.044,0,0,1-2.116.5c-2.217,0-1.814-1.612-1.814-1.612h4.132a13.075,13.075,0,0,0,.3-1.814,2.73,2.73,0,0,0-2.922-2.922C1176.515,1609.927,1175,1612.144,1175,1614.664Zm3.527-2.923c1.108,0,.907,1.31.907,1.411h-2.217C1177.22,1613.051,1177.421,1611.741,1178.53,1611.741Z" fill="#fff"/>
        <path id="Path_2856" data-name="Path 2856" d="M1191.328,1617.888l.4-2.217a4.953,4.953,0,0,1-1.713.5c-1.411,0-2.016-1.108-2.016-2.318,0-2.418,1.21-3.728,2.62-3.728a3.364,3.364,0,0,1,1.814.6l.3-2.117a7.082,7.082,0,0,0-2.317-.5c-2.318,0-4.636,2.016-4.636,5.845,0,2.519,1.21,4.232,3.628,4.232A9.06,9.06,0,0,0,1191.328,1617.888Z" fill="#fff"/>
        <path id="Path_2857" data-name="Path 2857" d="M1163.213,1609.927a7.143,7.143,0,0,0-2.419.4l-.3,1.714a5.947,5.947,0,0,1,2.217-.4c.706,0,1.31.1,1.31.706,0,.4-.1.5-.1.5h-.907c-1.713,0-3.627.705-3.627,3.023,0,1.814,1.209,2.217,1.914,2.217a3.031,3.031,0,0,0,2.117-.907l-.1.806h1.814l.806-5.542A2.389,2.389,0,0,0,1163.213,1609.927Zm.4,4.535c0,.3-.2,1.915-1.411,1.915a.787.787,0,0,1-.806-.807c0-.5.3-1.209,1.814-1.209A1.582,1.582,0,0,0,1163.616,1614.462Z" fill="#fff"/>
        <path id="Path_2858" data-name="Path 2858" d="M1167.848,1618.09c.5,0,3.023.1,3.023-2.62,0-2.52-2.418-2.016-2.418-3.023,0-.5.4-.706,1.108-.706.3,0,1.411.1,1.411.1l.3-1.814a7.685,7.685,0,0,0-1.915-.2c-1.512,0-3.023.6-3.023,2.62,0,2.317,2.519,2.116,2.519,3.023,0,.6-.7.705-1.209.705a6.6,6.6,0,0,1-1.814-.3l-.3,1.814C1165.631,1617.888,1166.135,1618.09,1167.848,1618.09Z" fill="#fff"/>
        <path id="Path_2859" data-name="Path 2859" d="M1208.055,1608.315l-.4,2.721a2.793,2.793,0,0,0-1.914-1.008c-1.814,0-3.426,2.217-3.426,4.837,0,1.612.806,3.325,2.519,3.325a2.688,2.688,0,0,0,1.914-.806l-.1.706h2.015l1.512-9.674Zm-.906,5.341c0,1.108-.5,2.519-1.613,2.519-.7,0-1.108-.605-1.108-1.612,0-1.613.705-2.62,1.612-2.62C1206.745,1611.943,1207.149,1612.447,1207.149,1613.656Z" fill="#fff"/>
        <path id="Path_2860" data-name="Path 2860" d="M1152.229,1617.989l1.209-7.255.2,7.255h1.411l2.62-7.255-1.109,7.255h2.116l1.613-9.674h-3.326l-2.015,5.945-.1-5.945h-2.922l-1.613,9.674Z" fill="#fff"/>
        <path id="Path_2861" data-name="Path 2861" d="M1183.468,1617.989c.6-3.325.7-6.046,2.116-5.542a7.921,7.921,0,0,1,.7-2.318h-.4c-.907,0-1.612,1.209-1.612,1.209l.2-1.108h-1.914l-1.31,7.86h2.217Z" fill="#fff"/>
        <path id="Path_2862" data-name="Path 2862" d="M1195.963,1609.927a7.132,7.132,0,0,0-2.418.4l-.3,1.714a5.947,5.947,0,0,1,2.217-.4c.706,0,1.31.1,1.31.706,0,.4-.1.5-.1.5h-.906c-1.714,0-3.628.705-3.628,3.023,0,1.814,1.209,2.217,1.914,2.217a3.031,3.031,0,0,0,2.117-.907l-.1.806h1.814l.806-5.542C1198.785,1610.028,1196.668,1609.927,1195.963,1609.927Zm.5,4.535c0,.3-.2,1.915-1.411,1.915a.787.787,0,0,1-.806-.807c0-.5.3-1.209,1.814-1.209C1196.366,1614.462,1196.366,1614.462,1196.467,1614.462Z" fill="#fff"/>
        <path id="Path_2863" data-name="Path 2863" d="M1200.4,1617.989c.6-3.325.705-6.046,2.116-5.542a7.908,7.908,0,0,1,.706-2.318h-.4c-.906,0-1.612,1.209-1.612,1.209l.2-1.108h-1.915l-1.31,7.86h2.217Z" fill="#fff"/>
      </g>
      <g id="Group_910" data-name="Group 910">
        <path id="Path_2864" data-name="Path 2864" d="M1171.174,1616.477a1.512,1.512,0,0,0,1.612,1.713,3.838,3.838,0,0,0,1.512-.3l.3-1.713a4.348,4.348,0,0,1-.5.1c-.7,0-.806-.4-.7-.6l.6-3.527h1.109l.3-1.914H1174.4l.2-1.21" fill="#dce5e5"/>
        <path id="Path_2865" data-name="Path 2865" d="M1176.011,1614.664c0,2.821.907,3.526,2.519,3.526a5.238,5.238,0,0,0,2.116-.3l.4-1.914a6.044,6.044,0,0,1-2.116.5c-2.217,0-1.814-1.612-1.814-1.612h4.132a13.075,13.075,0,0,0,.3-1.814,2.73,2.73,0,0,0-2.922-2.922C1176.515,1609.927,1176.011,1612.144,1176.011,1614.664Zm2.519-2.923c1.108,0,1.31,1.31,1.31,1.411h-2.62C1177.22,1613.051,1177.421,1611.741,1178.53,1611.741Z" fill="#dce5e5"/>
        <path id="Path_2866" data-name="Path 2866" d="M1191.328,1617.888l.4-2.217a4.953,4.953,0,0,1-1.713.5c-1.411,0-2.016-1.108-2.016-2.318,0-2.418,1.21-3.728,2.62-3.728a3.364,3.364,0,0,1,1.814.6l.3-2.117a7.082,7.082,0,0,0-2.317-.5c-2.318,0-3.628,2.016-3.628,5.845,0,2.519.2,4.232,2.62,4.232A9.06,9.06,0,0,0,1191.328,1617.888Z" fill="#dce5e5"/>
        <path id="Path_2867" data-name="Path 2867" d="M1160.492,1612.144a5.958,5.958,0,0,1,2.217-.4c.706,0,1.31.1,1.31.706,0,.4-.1.5-.1.5h-.907c-1.713,0-3.627.706-3.627,3.024,0,1.813,1.209,2.216,1.914,2.216a3.033,3.033,0,0,0,2.117-.906l-.1.806h1.814l.806-5.543c0-2.317-2.016-2.418-2.822-2.418m1.512,4.333a3.3,3.3,0,0,1-2.419,1.915.787.787,0,0,1-.806-.807c0-.5.3-1.209,1.814-1.209A8.209,8.209,0,0,0,1164.624,1614.462Z" fill="#dce5e5"/>
        <path id="Path_2868" data-name="Path 2868" d="M1165.631,1617.888a8.514,8.514,0,0,0,2.318.2c.5,0,3.023.1,3.023-2.62,0-2.52-2.418-2.016-2.418-3.023,0-.5.4-.706,1.108-.706.3,0,1.411.1,1.411.1l.3-1.814a7.67,7.67,0,0,0-1.914-.2c-1.512,0-2.016.6-2.016,2.62,0,2.317,1.512,2.116,1.512,3.023,0,.6-.706.705-1.209.705" fill="#dce5e5"/>
        <path id="Path_2869" data-name="Path 2869" d="M1207.652,1611.036a2.793,2.793,0,0,0-1.914-1.008c-1.814,0-2.419,2.217-2.419,4.837,0,1.612-.2,3.325,1.512,3.325a2.688,2.688,0,0,0,1.914-.806l-.1.706h2.015l1.512-9.674m-2.62,5.24c0,1.108-.907,2.519-2.016,2.519-.7,0-1.108-.605-1.108-1.612,0-1.613.705-2.62,1.612-2.62A1.54,1.54,0,0,1,1207.552,1613.656Z" fill="#dce5e5"/>
        <path id="Path_2870" data-name="Path 2870" d="M1152.229,1617.989l1.209-7.255.2,7.255h1.411l2.62-7.255-1.109,7.255h2.116l1.613-9.674h-2.52l-2.821,5.945-.1-5.945h-1.108l-3.427,9.674Z" fill="#dce5e5"/>
        <path id="Path_2871" data-name="Path 2871" d="M1181.352,1617.989h2.116c.6-3.325.7-6.046,2.116-5.542a7.921,7.921,0,0,1,.7-2.318h-.4c-.907,0-1.612,1.209-1.612,1.209l.2-1.108" fill="#dce5e5"/>
        <path id="Path_2872" data-name="Path 2872" d="M1193.242,1612.144a5.958,5.958,0,0,1,2.217-.4c.706,0,1.31.1,1.31.706,0,.4-.1.5-.1.5h-.906c-1.714,0-3.628.706-3.628,3.024,0,1.813,1.209,2.216,1.914,2.216a3.033,3.033,0,0,0,2.117-.906l-.1.806h1.814l.806-5.543c0-2.317-2.016-2.418-2.822-2.418m1.512,4.333a3.3,3.3,0,0,1-2.419,1.915.787.787,0,0,1-.806-.807c0-.5.3-1.209,1.814-1.209A8.84,8.84,0,0,0,1197.374,1614.462Z" fill="#dce5e5"/>
        <path id="Path_2873" data-name="Path 2873" d="M1198.281,1617.989h2.116c.6-3.325.705-6.046,2.116-5.542a7.908,7.908,0,0,1,.706-2.318h-.4c-.906,0-1.612,1.209-1.612,1.209l.2-1.108" fill="#dce5e5"/>
      </g>
    </g>
  </g>
</svg>
