<svg xmlns="http://www.w3.org/2000/svg" width="72.728" height="67.899" viewBox="0 0 72.728 67.899">
  <path id="Path_2692" data-name="Path 2692" d="M604.077,1734.476c.247.364.48.727.756,1.062a19.038,19.038,0,0,0,3.664,3.664c.349.276.712.523,1.076.77a19,19,0,0,0,6.862,2.85c.422.073.829.145,1.236.2a19.235,19.235,0,0,0,5.162,0c.421-.044.828-.117,1.279-.2h.044a19.043,19.043,0,0,0,6.819-2.835c.363-.247.727-.48,1.061-.756a19.037,19.037,0,0,0,3.664-3.664c.276-.349.523-.713.756-1.076a19.05,19.05,0,0,0,2.85-6.892c.072-.407.145-.814.189-1.206a19.23,19.23,0,0,0,0-5.162c-.044-.422-.117-.829-.2-1.279h0v-.015a19.036,19.036,0,0,0-2.835-6.819c-.247-.363-.494-.727-.756-1.061a19.038,19.038,0,0,0-3.664-3.664c-.349-.276-.712-.524-1.076-.771a19,19,0,0,0-6.862-2.849c-.422-.073-.829-.146-1.236-.2a19.155,19.155,0,0,0-5.162,0c-.421.044-.828.116-1.279.2h-.044a19.024,19.024,0,0,0-6.819,2.835c-.363.247-.727.48-1.061.756a18.9,18.9,0,0,0-3.649,3.664,12.921,12.921,0,0,0-.757,1.076,19.05,19.05,0,0,0-2.849,6.891c-.073.407-.146.814-.189,1.207a19.143,19.143,0,0,0,0,5.161c.058.422.116.829.2,1.28h0v.014a18.754,18.754,0,0,0,2.821,6.819Zm-.087-5.844h4.551l-3.214,3.213A16.858,16.858,0,0,1,603.99,1728.632Zm11.413,11.413a15.948,15.948,0,0,1-3.213-1.338l3.213-3.227Zm9.7,0v-4.551l3.213,3.213A15.949,15.949,0,0,1,625.1,1740.045Zm10.09-8.2-3.213-3.213h4.551A16.861,16.861,0,0,1,635.191,1731.845Zm1.338-12.911h-4.551l3.213-3.213A16.812,16.812,0,0,1,636.529,1718.934ZM625.1,1707.52a16.006,16.006,0,0,1,3.213,1.338l-3.213,3.228Zm-9.7,0v4.551l-3.213-3.213A15.81,15.81,0,0,1,615.4,1707.52Zm-5.423,2.763.131-.087,5.656,5.67a1.2,1.2,0,0,0,1.715,0,1.278,1.278,0,0,0,.364-.858V1707c.058-.014.1-.014.174-.029a16.578,16.578,0,0,1,2.254-.16c.174,0,.334.015.509.015a14.274,14.274,0,0,1,1.773.145.674.674,0,0,1,.146.029v8.011a1.2,1.2,0,0,0,2.064.844l5.656-5.656a.911.911,0,0,1,.146.1,16.414,16.414,0,0,1,3.213,3.214l.087.131-5.67,5.655a1.215,1.215,0,0,0,.014,1.716,1.229,1.229,0,0,0,.844.349h8.011c.014.058.014.1.029.16a15.811,15.811,0,0,1,0,4.536.54.54,0,0,1-.029.146h-8.011a1.2,1.2,0,0,0-.844,2.064l5.671,5.656c-.029.044-.059.087-.1.145a16.831,16.831,0,0,1-3.213,3.214.79.79,0,0,0-.117.087l-5.656-5.671a1.215,1.215,0,0,0-2.079.858v8.011c-.058.015-.1.015-.174.029a15.741,15.741,0,0,1-4.536,0,.614.614,0,0,1-.146-.029v-8.011a1.2,1.2,0,0,0-2.064-.843l-5.656,5.67a.912.912,0,0,1-.146-.1,16.414,16.414,0,0,1-3.213-3.214.833.833,0,0,0-.087-.116l5.67-5.656a1.214,1.214,0,0,0-.857-2.079h-8.041c-.014-.058-.014-.1-.029-.16a15.811,15.811,0,0,1,0-4.536.542.542,0,0,1,.029-.146h8.011a1.2,1.2,0,0,0,.844-2.064l-5.656-5.656c.029-.044.058-.087.1-.145a16.463,16.463,0,0,1,3.213-3.228Zm-4.653,5.438,3.214,3.213H603.99a16.809,16.809,0,0,1,1.337-3.213Zm14.932,11.7a3.635,3.635,0,1,0-3.635-3.635A3.636,3.636,0,0,0,620.259,1727.425Zm0-4.856a1.207,1.207,0,1,1-1.207,1.206A1.2,1.2,0,0,1,620.259,1722.569Zm-1.221-6.063h2.428v2.428h-2.428Zm0,12.126h2.428v2.428h-2.428Zm6.063-6.063h2.428V1725H625.1Zm-12.126,0H615.4V1725h-2.428Zm7.284,27.886c.364,0,.713-.014,1.062-.029a.5.5,0,0,0,.16.029h19.395v-2.428h-9.494c.349-.16.7-.349,1.047-.523a2.828,2.828,0,0,0,.29-.146c.6-.305,1.164-.654,1.731-1,.145-.087.29-.189.45-.291q.676-.437,1.309-.916c.131-.1.276-.189.407-.29.218-.175.422-.349.64-.524v.044h26.679a3.636,3.636,0,0,1-3.634,3.635H648.175v2.428H660.3a6.069,6.069,0,0,0,6.063-6.063v-12.126a6.069,6.069,0,0,0-6.063-6.063h-.029a6.113,6.113,0,0,0,1.25-3.635v-12.126a5.891,5.891,0,0,0-1.25-3.635h.029a6.068,6.068,0,0,0,6.063-6.062v-12.112a6.069,6.069,0,0,0-6.063-6.063H625.1a6.069,6.069,0,0,0-6.063,6.063v8.52a26.673,26.673,0,0,0,1.221,53.316Zm6.935-52.414c-.465-.117-.93-.247-1.41-.349-.349-.073-.7-.131-1.047-.189-.465-.073-.93-.146-1.4-.2-.364-.043-.727-.072-1.091-.1-.262-.015-.509-.059-.756-.073v-1.236h42.44v2.428H628.212l-.029-.014c-.334-.1-.669-.175-.989-.262Zm19.265,20.733c-.058-.32-.131-.625-.2-.931-.015-.043-.015-.087-.03-.116h12.839v2.414H646.677c-.072-.451-.131-.916-.218-1.367Zm-.916-3.475q-.218-.676-.48-1.309c-.116-.3-.247-.61-.363-.9-.029-.073-.058-.131-.087-.2h14.452v2.429H645.543Zm-1.934,21.358c.059-.116.131-.218.189-.334.291-.538.553-1.091.8-1.643h19.308v2.428H643.362A4.34,4.34,0,0,0,643.609,1736.657Zm-3.823,5.307a2.825,2.825,0,0,0,.189-.218c.436-.48.872-.989,1.279-1.5a1.707,1.707,0,0,0,.145-.2c.117-.16.248-.334.378-.509h22.129v2.428Zm24.12-9.7H645.543a1.618,1.618,0,0,0,.073-.247c.2-.639.392-1.294.552-1.963a4.242,4.242,0,0,0,.1-.465c.073-.32.146-.64.2-.974h13.783a3.661,3.661,0,0,1,3.649,3.649Zm-17.083-6.062a1.153,1.153,0,0,1,.014-.219c.058-.727.1-1.468.1-2.21,0-.407-.029-.814-.058-1.206h12.184a3.637,3.637,0,0,1-3.635,3.635Zm12.242-15.761h-15.7c-.232-.393-.48-.771-.727-1.149l-.349-.567c-.45-.669-.945-1.308-1.454-1.933h14.583a3.661,3.661,0,0,1,3.65,3.649Zm1.207-6.063H638.564c-.334-.305-.683-.6-1.017-.887-.233-.2-.451-.407-.684-.6-.523-.407-1.061-.8-1.6-1.163-.146-.1-.276-.2-.407-.291-.378-.247-.785-.465-1.178-.7h30.242a3.658,3.658,0,0,1-3.649,3.635Zm-35.171-19.4h35.171a3.636,3.636,0,0,1,3.634,3.635H648.16v2.428h15.746v2.428h-42.44v-2.428h24.252v-2.428H621.466A3.636,3.636,0,0,1,625.1,1684.984Zm-4.842,14.54c.8,0,1.585.043,2.37.116a24.668,24.668,0,0,1,4.9,1v.088h.262a24.233,24.233,0,0,1,16.72,23.044,22.751,22.751,0,0,1-.262,3.461c-.1.712-.232,1.425-.392,2.123a24.225,24.225,0,0,1-22.464,18.624c-.378.03-.756.03-1.134.03a24.244,24.244,0,1,1,0-48.489Zm23.031,48.5h2.428v2.428H643.29Z" transform="translate(-593.636 -1682.556)" fill="#0074d3"/>
</svg>
