<?xml version="1.0" encoding="utf-8"?>
<!-- Generator: Adobe Illustrator 19.0.0, SVG Export Plug-In . SVG Version: 6.00 Build 0)  -->
<svg version="1.1" xmlns="http://www.w3.org/2000/svg" xmlns:xlink="http://www.w3.org/1999/xlink" x="0px" y="0px"
	 viewBox="0 0 512 512" style="enable-background:new 0 0 512 512;" xml:space="preserve">
<style type="text/css">
	.st0{fill:none;}
</style>
<g id="Tyre_checking_service">
	<path id="XMLID_79_" d="M77.8,379.6c1.7,2.5,3.3,5,5.2,7.3c7.2,9.5,15.7,18,25.2,25.2c2.4,1.9,4.9,3.6,7.4,5.3
		c14.3,9.6,30.3,16.2,47.2,19.6c2.9,0.5,5.7,1,8.5,1.4c5.9,0.8,11.8,1.2,17.8,1.2c5.9,0,11.8-0.4,17.7-1.2c2.9-0.3,5.7-0.8,8.8-1.4
		h0.1h0.2c16.8-3.4,32.7-10,46.9-19.5c2.5-1.7,5-3.3,7.3-5.2c9.5-7.2,18-15.7,25.2-25.2c1.9-2.4,3.6-4.9,5.2-7.4
		c9.6-14.3,16.2-30.4,19.6-47.4c0.5-2.8,1-5.6,1.3-8.3c1.6-11.8,1.6-23.7,0-35.5c-0.3-2.9-0.8-5.7-1.4-8.8v0v-0.1
		c-3.4-16.8-10-32.7-19.5-46.9c-1.7-2.5-3.4-5-5.2-7.3c-7.2-9.5-15.7-18-25.2-25.2c-2.4-1.9-4.9-3.6-7.4-5.3
		c-14.3-9.6-30.3-16.2-47.2-19.6c-2.9-0.5-5.7-1-8.5-1.4c-11.8-1.6-23.7-1.6-35.5,0c-2.9,0.3-5.7,0.8-8.8,1.4h-0.1h-0.2
		c-16.8,3.4-32.7,10-46.9,19.5c-2.5,1.7-5,3.3-7.3,5.2c-9.5,7.2-17.9,15.7-25.1,25.2c-1.9,2.4-3.6,4.9-5.2,7.4
		c-9.6,14.3-16.2,30.4-19.6,47.4c-0.5,2.8-1,5.6-1.3,8.3c-1.6,11.8-1.6,23.7,0,35.5c0.4,2.9,0.8,5.7,1.4,8.8v0v0.1
		C61.7,349.5,68.3,365.4,77.8,379.6L77.8,379.6z M77.2,339.4h31.3l-22.1,22.1C82.6,354.5,79.5,347.1,77.2,339.4z M155.7,417.9
		c-7.7-2.3-15.1-5.3-22.1-9.2l22.1-22.2V417.9z M222.4,417.9v-31.3l22.1,22.1C237.5,412.6,230.1,415.6,222.4,417.9z M291.8,361.5
		l-22.1-22.1H301C298.7,347.1,295.6,354.5,291.8,361.5z M301,272.7h-31.3l22.1-22.1C295.6,257.6,298.7,265,301,272.7z M222.4,194.2
		c7.7,2.3,15.1,5.3,22.1,9.2l-22.1,22.2V194.2z M155.7,194.2v31.3l-22.1-22.1C140.7,199.5,148.1,196.4,155.7,194.2z M118.4,213.2
		c0.3-0.2,0.6-0.4,0.9-0.6l38.9,39c3.3,3.3,8.5,3.3,11.8,0c1.6-1.6,2.4-3.7,2.5-5.9v-55.1c0.4-0.1,0.7-0.1,1.2-0.2
		c5.1-0.7,10.3-1.1,15.5-1.1c1.2,0,2.3,0.1,3.5,0.1c4.1,0.1,8.2,0.4,12.2,1c0.3,0,0.6,0.1,1,0.2v55.1c0,4.6,3.7,8.3,8.3,8.3
		c2.2,0,4.3-0.9,5.9-2.5l38.9-38.9c0.3,0.2,0.7,0.4,1,0.7c8.3,6.3,15.8,13.7,22.1,22.1c0.2,0.3,0.4,0.6,0.6,0.9l-39,38.9
		c-3.2,3.3-3.2,8.6,0.1,11.8c1.6,1.5,3.6,2.4,5.8,2.4h55.1c0.1,0.4,0.1,0.7,0.2,1.1c1.5,10.4,1.5,20.9,0,31.2c0,0.3-0.1,0.7-0.2,1
		h-55.1c-4.6,0-8.3,3.7-8.3,8.3c0,2.2,0.9,4.3,2.5,5.9l39,38.9c-0.2,0.3-0.4,0.6-0.7,1c-6.3,8.3-13.7,15.7-22.1,22.1
		c-0.3,0.2-0.6,0.4-0.8,0.6l-38.9-39c-3.2-3.3-8.5-3.3-11.8-0.1c-1.6,1.6-2.5,3.7-2.5,6v55.1c-0.4,0.1-0.7,0.1-1.2,0.2
		c-10.4,1.5-20.9,1.5-31.2,0c-0.3,0-0.6-0.1-1-0.2v-55.1c0-4.6-3.7-8.3-8.3-8.3c-2.2,0-4.3,0.9-5.9,2.5l-38.9,39
		c-0.3-0.2-0.7-0.4-1-0.7c-8.3-6.3-15.8-13.7-22.1-22.1c-0.2-0.3-0.4-0.6-0.6-0.8l39-38.9c3.3-3.2,3.3-8.5,0.1-11.8
		c-1.6-1.6-3.7-2.5-6-2.5H73.6c-0.1-0.4-0.1-0.7-0.2-1.1c-1.5-10.4-1.5-20.9,0-31.2c0-0.3,0.1-0.7,0.2-1h55.1c4.6,0,8.3-3.7,8.3-8.3
		c0-2.2-0.9-4.3-2.5-5.9l-38.9-38.9c0.2-0.3,0.4-0.6,0.7-1C102.7,226.9,110.1,219.5,118.4,213.2L118.4,213.2z M86.4,250.6l22.1,22.1
		H77.2C79.5,265,82.6,257.6,86.4,250.6L86.4,250.6z M189.1,331.1c13.8,0,25-11.2,25-25c0-13.8-11.2-25-25-25s-25,11.2-25,25
		C164.1,319.9,175.3,331.1,189.1,331.1z M189.1,297.7c4.6,0,8.3,3.7,8.3,8.3c0,4.6-3.7,8.3-8.3,8.3s-8.3-3.7-8.3-8.3
		C180.7,301.4,184.5,297.7,189.1,297.7z M180.7,256h16.7v16.7h-16.7V256z M180.7,339.4h16.7v16.7h-16.7V339.4z M222.4,297.7h16.7
		v16.7h-16.7V297.7z M139,297.7h16.7v16.7H139V297.7z M189.1,489.5c2.5,0,4.9-0.1,7.3-0.2c0.3,0.1,0.7,0.2,1.1,0.2h133.4v-16.7
		h-65.3c2.4-1.1,4.8-2.4,7.2-3.6c0.7-0.3,1.3-0.6,2-1c4.1-2.1,8-4.5,11.9-6.9c1-0.6,2-1.3,3.1-2c3.1-2,6.1-4.1,9-6.3
		c0.9-0.7,1.9-1.3,2.8-2c1.5-1.2,2.9-2.4,4.4-3.6v0.3h183.5c0,13.8-11.2,25-25,25l0,0h-83.4v16.7h83.4c23,0,41.7-18.7,41.7-41.7
		v-83.4c0-23-18.7-41.7-41.7-41.7h-0.2c5.5-7.2,8.5-16,8.6-25v-83.4c0-9.1-3-17.8-8.6-25h0.2c23,0,41.7-18.7,41.7-41.7V64.2
		c0-23-18.7-41.7-41.7-41.7H222.4c-23,0-41.7,18.7-41.7,41.7v58.6C79.5,127.6,1.4,213.6,6.2,314.8
		C10.9,412.4,91.3,489.3,189.1,489.5L189.1,489.5z M236.8,129c-3.2-0.8-6.4-1.7-9.7-2.4c-2.4-0.5-4.8-0.9-7.2-1.3
		c-3.2-0.5-6.4-1-9.6-1.4c-2.5-0.3-5-0.5-7.5-0.7c-1.8-0.1-3.5-0.4-5.2-0.5v-8.5h291.9v16.7H243.8l-0.2-0.1
		C241.3,130.1,239,129.6,236.8,129L236.8,129z M369.3,271.6c-0.4-2.2-0.9-4.3-1.4-6.4c-0.1-0.3-0.1-0.6-0.2-0.8H456V281h-85.2
		C370.3,277.9,369.9,274.7,369.3,271.6L369.3,271.6z M363,247.7c-1-3.1-2.1-6.1-3.3-9c-0.8-2.1-1.7-4.2-2.5-6.2
		c-0.2-0.5-0.4-0.9-0.6-1.4H456v16.7H363z M349.7,394.6c0.4-0.8,0.9-1.5,1.3-2.3c2-3.7,3.8-7.5,5.5-11.3h132.8v16.7H348
		C348.6,396.7,349.2,395.7,349.7,394.6z M323.4,431.1c0.5-0.5,0.9-1,1.3-1.5c3-3.3,6-6.8,8.8-10.3c0.4-0.5,0.7-0.9,1-1.4
		c0.8-1.1,1.7-2.3,2.6-3.5h152.2v16.7H323.4z M489.3,364.4H363c0.2-0.6,0.4-1.1,0.5-1.7c1.4-4.4,2.7-8.9,3.8-13.5
		c0.3-1,0.5-2.1,0.7-3.2c0.5-2.2,1-4.4,1.4-6.7h94.8C478.1,339.4,489.3,350.6,489.3,364.4L489.3,364.4z M371.8,322.7
		c0-0.5,0-1,0.1-1.5c0.4-5,0.7-10.1,0.7-15.2c0-2.8-0.2-5.6-0.4-8.3H456c0,13.8-11.2,25-25,25H371.8z M456,214.3H348
		c-1.6-2.7-3.3-5.3-5-7.9c-0.8-1.3-1.6-2.6-2.4-3.9c-3.1-4.6-6.5-9-10-13.3h100.3C444.8,189.3,456,200.5,456,214.3L456,214.3z
		 M464.3,172.6H315c-2.3-2.1-4.7-4.1-7-6.1c-1.6-1.4-3.1-2.8-4.7-4.1c-3.6-2.8-7.3-5.5-11-8c-1-0.7-1.9-1.4-2.8-2
		c-2.6-1.7-5.4-3.2-8.1-4.8h208C489.3,161.4,478.1,172.6,464.3,172.6L464.3,172.6z M222.4,39.2h241.9c13.8,0,25,11.2,25,25H381v16.7
		h108.3v16.7H197.4V80.9h166.8V64.2H197.4C197.4,50.4,208.6,39.2,222.4,39.2z M189.1,139.2c5.5,0,10.9,0.3,16.3,0.8
		c11.4,1.1,22.7,3.5,33.7,6.9v0.6h1.8c68.6,22.4,115,86.3,115,158.5c0,8-0.6,16-1.8,23.8c-0.7,4.9-1.6,9.8-2.7,14.6
		c-17.1,72.4-80.2,124.7-154.5,128.1c-2.6,0.2-5.2,0.2-7.8,0.2C97,472.8,22.3,398.2,22.3,306S97,139.2,189.1,139.2L189.1,139.2z
		 M347.5,472.8h16.7v16.7h-16.7V472.8z"/>
</g>
<g id="Layer_2">
	<rect id="XMLID_1_" x="-256" y="-256" class="st0" width="1024" height="1024"/>
</g>
</svg>
