<svg xmlns="http://www.w3.org/2000/svg" width="90.091" height="90" viewBox="0 0 90.091 90">
  <g id="Icon" transform="translate(-236.455 -1038.667)">
    <path id="Path_2898" data-name="Path 2898" d="M256.85,1069.028A20.11,20.11,0,0,0,242.5,1103.51a1.32,1.32,0,1,0,1.845-1.887,17.468,17.468,0,1,1,22.534,1.613,16.141,16.141,0,0,0-6.525,13,3.908,3.908,0,0,1-3.807,3.909h0l-.068,0a3.807,3.807,0,0,1-3.707-3.789v-.116a16.124,16.124,0,0,0-4.4-11.116,1.32,1.32,0,0,0-1.919,1.812,13.463,13.463,0,0,1,3.6,7.846c-6.307,1.072-10.169,3.585-10.169,6.684,0,2.156,1.887,4.071,5.314,5.393a35.925,35.925,0,0,0,22.531,0c2.71-1.045,4.456-2.461,5.069-4.073h1.127a1.32,1.32,0,0,0,0-2.64H272.8c-.93-2.447-4.457-4.4-9.725-5.329a13.458,13.458,0,0,1,5.371-9.449,20.127,20.127,0,0,0-11.591-36.337Zm13.554,52.435c0,1.861-5.431,4.565-13.942,4.565s-13.939-2.7-13.939-4.565c0-1.364,2.852-3.153,7.7-4.032a6.466,6.466,0,0,0,6.211,5.351h.035l.085,0a6.477,6.477,0,0,0,6.322-5.32C267.618,1118.356,270.4,1120.125,270.4,1121.463Zm-13.84-21.054a11.273,11.273,0,1,0-11.273-11.273A11.286,11.286,0,0,0,256.564,1100.409Zm0-19.905a8.633,8.633,0,1,1-8.633,8.632,8.641,8.641,0,0,1,8.633-8.632Zm65.369-36.811a16.378,16.378,0,0,0-28.173,11.369,16.464,16.464,0,0,0,6.683,13.208,10.609,10.609,0,0,1,4.2,7.15c-4.028.725-6.805,2.2-7.761,4.078h-1.248a1.32,1.32,0,1,0,0,2.64h1.1c.517,1.368,1.966,2.559,4.216,3.426a26.249,26.249,0,0,0,9.131,1.47,31.116,31.116,0,0,0,4.906-.377,1.32,1.32,0,1,0-.419-2.607,28.318,28.318,0,0,1-4.487.345c-7.067,0-10.922-2.247-10.922-3.4,0-.356.425-.963,1.616-1.6a15.006,15.006,0,0,1,4.1-1.331,5.452,5.452,0,0,0,5.184,4.249h.1a5.33,5.33,0,0,0,3.754-1.551,5.6,5.6,0,0,0,1.513-2.674c3.8.749,5.578,2.121,5.578,2.905,0,.377-.464,1.015-1.765,1.677a1.32,1.32,0,0,0,1.2,2.353c2.651-1.349,3.208-2.936,3.208-4.03,0-2.546-3.023-4.622-7.974-5.545a10.526,10.526,0,0,1,4.174-7.159,16.36,16.36,0,0,0,2.1-24.6Zm-3.658,22.468a13.216,13.216,0,0,0-5.341,10.64,2.931,2.931,0,0,1-.878,2.078,2.715,2.715,0,0,1-1.958.795,2.793,2.793,0,0,1-2.725-2.779v-.093a13.272,13.272,0,0,0-5.365-10.658,13.816,13.816,0,0,1-5.608-11.082,13.755,13.755,0,0,1,13.752-13.755l.2,0a13.754,13.754,0,0,1,7.925,24.852Zm-8.122-20.4a9.3,9.3,0,1,0,9.3,9.3A9.314,9.314,0,0,0,310.153,1045.757Zm0,15.968a6.664,6.664,0,1,1,6.664-6.664A6.672,6.672,0,0,1,310.153,1061.725Zm2.541,42.964a1.321,1.321,0,0,0-.868,1.653,10.632,10.632,0,0,1,.479,3.166c0,.28-.011.563-.033.841a1.32,1.32,0,0,0,1.213,1.419c.035,0,.07,0,.1,0a1.32,1.32,0,0,0,1.315-1.217c.027-.346.041-.7.041-1.048a13.3,13.3,0,0,0-.6-3.95,1.322,1.322,0,0,0-1.653-.868Zm-3.312-2.505a1.32,1.32,0,1,0,1.914-1.818,13.24,13.24,0,0,0-4.089-2.927,1.32,1.32,0,1,0-1.1,2.4A10.636,10.636,0,0,1,309.382,1102.184Zm-5.642,17.758a10.775,10.775,0,0,1-2.071.2h-2.217a1.32,1.32,0,1,0,0,2.64h2.217a13.419,13.419,0,0,0,2.582-.251,1.32,1.32,0,0,0-.511-2.59Zm-17.67-35.75a1.314,1.314,0,0,0,.866-.325,7.028,7.028,0,0,1,3.422-1.627,1.319,1.319,0,0,0-.446-2.6,9.652,9.652,0,0,0-4.709,2.237,1.32,1.32,0,0,0,.867,2.316Zm-2.391,9.13a1.3,1.3,0,0,0,.444-.078,1.319,1.319,0,0,0,.8-1.687,7.035,7.035,0,0,1-.409-2.372,7.153,7.153,0,0,1,.141-1.411,1.32,1.32,0,1,0-2.587-.525,9.787,9.787,0,0,0-.194,1.936,9.674,9.674,0,0,0,.563,3.261,1.322,1.322,0,0,0,1.243.876Zm18.984,4.23a1.319,1.319,0,0,0-1.319-1.32h-4.559a1.32,1.32,0,1,0,0,2.64h4.559A1.32,1.32,0,0,0,302.663,1097.552Zm9.96,16.932a1.32,1.32,0,0,0-1.81.459,10.647,10.647,0,0,1-2.681,3.012,1.32,1.32,0,1,0,1.606,2.1,13.28,13.28,0,0,0,3.343-3.756,1.321,1.321,0,0,0-.458-1.81Zm-18.641,5.659h-4.559a1.32,1.32,0,1,0,0,2.64h4.559a1.32,1.32,0,1,0,0-2.64Zm-10.029,0h-4.559a1.32,1.32,0,1,0,0,2.64h4.559a1.32,1.32,0,1,0,0-2.64Zm7.362-21.275a1.32,1.32,0,0,0,.037-2.639,7.02,7.02,0,0,1-3.618-1.125,1.32,1.32,0,1,0-1.436,2.216,9.673,9.673,0,0,0,4.978,1.548Z" fill="#d61225"/>
  </g>
</svg>
