<svg xmlns="http://www.w3.org/2000/svg" width="90.149" height="90" viewBox="0 0 90.149 90">
  <g id="Icon_copy_3" data-name="Icon copy 3" transform="translate(-1114.426 -1038.668)">
    <path id="Path_2906" data-name="Path 2906" d="M1199.974,1101.094a15.871,15.871,0,0,0-16.9-3.514l-2.537-2.531a5.663,5.663,0,0,0,.579-.5l6.328-6.315a5.5,5.5,0,0,0,0-7.773h0a5.5,5.5,0,0,0-4.2-1.6,6.169,6.169,0,0,0,.058-.84,6.084,6.084,0,0,0-5.813-6.081,6.082,6.082,0,0,0-6.487-7.973,6.266,6.266,0,0,0,.041-.7,6.043,6.043,0,0,0-1.782-4.308,6.116,6.116,0,0,0-8.626,0l-4.045,4.036-.313-.312a3.9,3.9,0,0,0-5.5.005l-1.342,1.339-3.912-3.907a15.72,15.72,0,0,0-17.62-21.175c-.736.139-2.977.561-3.437,2.275-.45,1.677,1.149,3.052,1.918,3.712.078.067,6.316,6.28,6.316,6.28a4.053,4.053,0,1,1-5.72,5.7s-6.226-6.224-6.293-6.3c-.662-.767-2.041-2.362-3.718-1.912-1.714.461-2.136,2.7-2.275,3.43a15.716,15.716,0,0,0,4.323,14.071,15.875,15.875,0,0,0,16.9,3.514l4.529,4.519a10.911,10.911,0,0,0-.716,4.578c.215,3.543-1.663,7.018-6.28,11.621l-4.81,4.8a4.34,4.34,0,0,0-5.04.785l-6.736,6.72a4.328,4.328,0,0,0,0,6.115l18.6,18.558a4.339,4.339,0,0,0,6.12,0l6.736-6.72a4.336,4.336,0,0,0,.79-5.034l8.181-8.163c2.425-2.419,2.819-2.353,5.387-1.925.432.073.922.154,1.474.233,2.242.322,4.845-.817,6.322-1.606l2.986,2.979a15.9,15.9,0,0,0-1.062,6.417,1.321,1.321,0,0,0,1.318,1.265l.057,0a1.321,1.321,0,0,0,1.264-1.374,13.193,13.193,0,0,1,1.185-6.057,1.32,1.32,0,0,0-.266-1.488l-21.13-21.088a11.574,11.574,0,0,0,1.4-5.033,14.483,14.483,0,0,0,5.477,2.9,9.623,9.623,0,0,0,4.446.222v.044a6.084,6.084,0,0,0,5.81,6.075,5.533,5.533,0,0,0-.238,1.612,5.487,5.487,0,0,0,5.5,5.493,5.529,5.529,0,0,0,.643-.039l3.97,3.961a1.321,1.321,0,0,0,1.483.265,13.219,13.219,0,0,1,14.786,2.622,13.077,13.077,0,0,1,3.594,11.71,4.52,4.52,0,0,1-.389,1.275,5.67,5.67,0,0,1-1.01-.992c-.115-.133-6.427-6.445-6.427-6.445a7.1,7.1,0,0,0-9.651-.327,1.375,1.375,0,0,0-.127.126,7.07,7.07,0,0,0,.328,9.638l7.45,7.414a4.525,4.525,0,0,1-1.278.387,13.08,13.08,0,0,1-14.136-6.872,1.32,1.32,0,1,0-2.35,1.2,15.787,15.787,0,0,0,16.975,8.263c.737-.138,2.978-.56,3.438-2.274.449-1.677-1.15-3.052-1.919-3.712-.077-.067-6.315-6.28-6.315-6.28a4.052,4.052,0,1,1,5.719-5.7s6.226,6.224,6.293,6.3c.663.767,2.042,2.362,3.718,1.912,1.714-.461,2.136-2.7,2.275-3.43a15.715,15.715,0,0,0-4.322-14.07Zm-25.812-33.52a3.462,3.462,0,0,1,.049,4.83l-4.245,4.236c-.729-1.056-4.738-5.033-4.738-5.033l4.04-4.032A3.47,3.47,0,0,1,1174.162,1067.574Zm-11.655-6.745a3.472,3.472,0,0,1,4.9,0,3.457,3.457,0,0,1,0,4.876l-4.045,4.036-4.891-4.88Zm-25.345,6.385a1.321,1.321,0,0,0-1.483-.265,13.218,13.218,0,0,1-14.786-2.622,13.075,13.075,0,0,1-3.594-11.71,4.55,4.55,0,0,1,.389-1.276,5.688,5.688,0,0,1,1.01.993c.114.133,6.427,6.445,6.427,6.445a7.1,7.1,0,0,0,9.651.327,1.334,1.334,0,0,0,.126-.126,7.07,7.07,0,0,0-.327-9.638s-7.325-7.225-7.45-7.415a4.56,4.56,0,0,1,1.277-.386,13.08,13.08,0,0,1,14.368,18.332,1.322,1.322,0,0,0,.266,1.487l4.54,4.533-4.921,4.909a9.365,9.365,0,0,0-.876,1.019Zm30.778,11.447a6.08,6.08,0,0,0-.884,1.118c-2.813,1.743-7.261-.177-9.474-2.309l-.275-.274c-2.023-2.016-3.1-3.089-3.2-3.191l-.006-.005-.014-.015-.021-.019a1.32,1.32,0,0,0-1.871,1.861l.026.027a5,5,0,0,1,1.378,3.643,10.217,10.217,0,0,1-3.191,6.912,1.32,1.32,0,0,0,1.866,1.869,15.3,15.3,0,0,0,1.069-1.191l15.17,15.139a7.959,7.959,0,0,1-3.981.955c-.522-.074-1-.153-1.413-.223-3.06-.51-4.431-.588-7.688,2.661l-8.038,8.02-6.642-6.627a1.321,1.321,0,0,0-1.865,1.87l7.572,7.554h0l0,0a1.684,1.684,0,0,1,0,2.375l-6.736,6.721a1.694,1.694,0,0,1-2.389,0l-18.6-18.559a1.685,1.685,0,0,1,0-2.375l6.735-6.721a1.694,1.694,0,0,1,2.389,0l6.661,6.646a1.321,1.321,0,1,0,1.865-1.87l-5.724-5.711,4.659-4.648c5.207-5.191,7.316-9.273,7.051-13.648a7.964,7.964,0,0,1,2.146-5.978l8.132-8.114a1.267,1.267,0,0,1,1.766-.005l1.244,1.24,8.606,8.587c.232.232.464.461.692.687a21.759,21.759,0,0,1,3.1,3.474Zm4.314,7.755a3.447,3.447,0,0,1-2.448-5.885l4.957-4.947a3.472,3.472,0,0,1,4.9,0h0a3.448,3.448,0,0,1,0,4.874l0,0-4.958,4.947a3.431,3.431,0,0,1-2.446,1.008Zm2.946,6.263a2.861,2.861,0,0,1,0-4.035l6.323-6.314a2.877,2.877,0,0,1,4.057,0h0a2.859,2.859,0,0,1,0,4.034l-6.329,6.315a2.874,2.874,0,0,1-4.052,0Z" fill="#d61225"/>
  </g>
</svg>
