<svg xmlns="http://www.w3.org/2000/svg" width="60.172" height="90" viewBox="0 0 60.172 90">
  <g id="Icon_copy" data-name="Icon copy" transform="translate(-544.414 -1038.668)">
    <path id="Path_2901" data-name="Path 2901" d="M603.531,1038.695a1.319,1.319,0,0,0-1.555,1.028l-5.076,24.845-3.76-5.394c-1.14-1.507-1.568-2.642-3.094-3.651l1.772-15.385a1.318,1.318,0,1,0-2.619-.3l-1.695,14.7c-.719-.111.675-.078-18.907-.078a1.318,1.318,0,1,0,0,2.637h3.916l-17.478,17.478-1.818-3.5a3.749,3.749,0,0,1,.25-3.871l5.929-8.507a4.242,4.242,0,0,1,3.93-1.6,1.318,1.318,0,0,0,0-2.637,11.1,11.1,0,0,0-1.83.077l-1.695-14.7a1.318,1.318,0,1,0-2.619.3l1.772,15.381c-1.722,1.136-1.78,1.987-6.855,9.042l-5.075-24.837a1.318,1.318,0,1,0-2.583.527l5.771,28.249a6.373,6.373,0,0,0,.666,3.8L563.1,1095.8a2.5,2.5,0,0,0-2.285,2.486v3.022a2.5,2.5,0,0,0,2.5,2.5h6.873v4.379a4.314,4.314,0,0,0,4.309,4.309,3.778,3.778,0,1,1-3.778,3.777,4.308,4.308,0,0,0-5.137-4.228l-3.056.6a4.309,4.309,0,0,0,.585,8.53,12.387,12.387,0,0,0,19.676,4.305,1.318,1.318,0,1,0-1.766-1.958,9.75,9.75,0,0,1-15.777-4.147,1.321,1.321,0,0,0-1.5-.874l-.065.013a1.672,1.672,0,1,1-.643-3.281l3.054-.6a1.672,1.672,0,0,1,1.995,1.64,6.414,6.414,0,1,0,6.414-6.414,1.674,1.674,0,0,1-1.672-1.672v-4.379h3.343v1.8a1.318,1.318,0,0,0,.963,1.269,9.8,9.8,0,0,1,7.123,9.4,9.686,9.686,0,0,1-.616,3.409,1.319,1.319,0,1,0,2.47.924,12.308,12.308,0,0,0,.783-4.333,12.445,12.445,0,0,0-8.086-11.622v-.843h6.873a2.5,2.5,0,0,0,2.5-2.5v-3.021a2.5,2.5,0,0,0-2.285-2.486l12.224-23.507a6.376,6.376,0,0,0,.669-3.776l5.775-28.27a1.318,1.318,0,0,0-1.028-1.555Zm-13.185,21.081-28.293,28.293-2.577-4.954,26.018-26.018h1.031c2.541,0,3.4,2.251,3.821,2.679Zm-14.1-2.678h5.523L558.2,1080.661c-.081-.157.25.481-1.89-3.632Zm9.3,44.073H563.454v-2.742h22.085Zm10.237-30.092-12.851,24.712H567.309l4.563-4.563a1.318,1.318,0,0,0-1.864-1.864l-4.791,4.791-1.888-3.632,28.548-28.549,2.268,3.254-20.409,20.409a1.318,1.318,0,1,0,1.864,1.864l20.07-20.069a3.735,3.735,0,0,1,.106,3.647Z" fill="#d61225"/>
  </g>
</svg>
