<svg xmlns="http://www.w3.org/2000/svg" width="90.398" height="90" viewBox="0 0 90.398 90">
  <g id="Icon_copy_2" data-name="Icon copy 2" transform="translate(-821.301 -1038.668)">
    <path id="Path_2903" data-name="Path 2903" d="M889.712,1055.82a6.99,6.99,0,0,0-4.707-1.507,6.782,6.782,0,0,0-4.206,1.193,3.27,3.27,0,0,0-1.569,2.511,1.352,1.352,0,0,0,.485,1.114,1.671,1.671,0,0,0,1.079.392,1.207,1.207,0,0,0,.828-.32,3.739,3.739,0,0,0,.61-.684,2.3,2.3,0,0,1,.939-.684,4.079,4.079,0,0,1,1.72-.32,3.656,3.656,0,0,1,2.345.7,2.375,2.375,0,0,1,.876,1.97,3.115,3.115,0,0,1-.361,1.443,4.223,4.223,0,0,1-.722,1.055q-.36.355-1.082.977l-.911.744a6.221,6.221,0,0,0-1.883,4.9,2.107,2.107,0,0,0,.33,1.366,1.428,1.428,0,0,0,1.114.372q1.569,0,1.569-1.13a9.13,9.13,0,0,1,.251-2.448,3.612,3.612,0,0,1,1.318-1.695l.6-.5.822-.785q.254-.251.777-.894a7.124,7.124,0,0,0,.792-1.162,7.973,7.973,0,0,0,.506-1.271,5.06,5.06,0,0,0,.238-1.537A4.789,4.789,0,0,0,889.712,1055.82Zm-3.577,18.109a2.059,2.059,0,0,0-1.507-.628,1.76,1.76,0,0,0-1.412.628,2.37,2.37,0,0,0,0,3,1.743,1.743,0,0,0,1.412.643,2.031,2.031,0,0,0,1.507-.643,2.1,2.1,0,0,0,0-3Zm-.036,36.74a7.027,7.027,0,0,0-1.318-1.035l-10.942-6.519a7.569,7.569,0,0,0-9.232,1.167l-2.484,2.515a.7.7,0,0,1-.781.15,1.444,1.444,0,1,0-1.16,2.644,3.6,3.6,0,0,0,4-.767l2.477-2.507a4.68,4.68,0,0,1,5.707-.72l10.928,6.51a4.062,4.062,0,0,1,.74,6.359l-1.714,1.755a18.948,18.948,0,0,1-20.582,4.148,65.78,65.78,0,0,1-36.135-36.135,18.944,18.944,0,0,1,4.139-20.572l1.764-1.733a4.084,4.084,0,0,1,5.758.012,4.2,4.2,0,0,1,.605.743l6.5,10.9a4.681,4.681,0,0,1-.717,5.707l-2.526,2.515a3.612,3.612,0,0,0-.706,3.988,38.262,38.262,0,0,0,15.324,17.491,1.444,1.444,0,1,0,1.5-2.47,35.391,35.391,0,0,1-14.177-16.187l-.009-.02a.7.7,0,0,1,.124-.769l2.514-2.5a7.569,7.569,0,0,0,1.16-9.23l-6.536-10.95a7.025,7.025,0,0,0-10.844-1.281l-1.767,1.736a21.832,21.832,0,0,0-4.781,23.711,68.663,68.663,0,0,0,37.721,37.721,21.835,21.835,0,0,0,23.724-4.792l1.713-1.754A6.959,6.959,0,0,0,886.1,1110.669Zm18.608-63.379a26.568,26.568,0,0,0-44.547,27.029,1.444,1.444,0,0,0,2.715-.985,23.68,23.68,0,1,1,8.2,10.967,1.445,1.445,0,0,0-1.339-.2l-8.4,2.96,3.62-8.244a1.444,1.444,0,1,0-2.644-1.161l-4,9.118a2.474,2.474,0,0,0,3.087,3.328l8.593-3.027a26.567,26.567,0,0,0,34.727-39.784Z" fill="#d61225"/>
  </g>
</svg>
