<svg xmlns="http://www.w3.org/2000/svg" width="16" height="15.2" viewBox="0 0 16 15.2">
  <path id="Phone_Icon" data-name="Phone Icon" d="M1000.52,28.027,998.2,26.553a1.339,1.339,0,0,0-1.724.325l-.525.8a18.494,18.494,0,0,1-5.6-5.273l.875-.525a1.237,1.237,0,0,0,.525-.8,1.1,1.1,0,0,0-.2-.924l-1.525-2.2a1.307,1.307,0,0,0-1.674-.4l-2.224,1.2c-.125.075-.2.125-.325.2-1.674,1.8-.15,5.873,3.724,9.521,2.8,2.674,5.8,4.123,7.921,4.123a2.858,2.858,0,0,0,1.924-.6l.275-.275h0l1.275-2A1.18,1.18,0,0,0,1000.52,28.027Zm-2,2.974c-1.15.95-4.723-.25-8.122-3.448-3.348-3.2-4.6-6.6-3.6-7.672l2.074-1.2,1.474,2.124-.874.525a1.237,1.237,0,0,0-.525.8,1.1,1.1,0,0,0,.2.925,20.682,20.682,0,0,0,6.072,5.8,1.339,1.339,0,0,0,1.724-.325l.6-.874,2.274,1.4Z" transform="translate(-985.128 -17.4)" fill="#fff"/>
</svg>
