<svg xmlns="http://www.w3.org/2000/svg" width="78.648" height="80" viewBox="0 0 78.648 80">
  <g id="Icon" transform="translate(-1168.176 -1581.082)">
    <g id="Group_1833" data-name="Group 1833">
      <path id="Path_3191" data-name="Path 3191" d="M1195.528,1619.718a14.841,14.841,0,0,0-22.74,0,19.517,19.517,0,0,0,0,25.2l11.369,12.844,11.37-12.844A19.516,19.516,0,0,0,1195.528,1619.718Zm-2,23.431-9.372,10.588-9.374-10.588a16.774,16.774,0,0,1,0-21.663,12.174,12.174,0,0,1,18.744,0A16.776,16.776,0,0,1,1193.531,1643.149Z" fill="#141414"/>
      <path id="Path_3192" data-name="Path 3192" d="M1232.5,1613.758l8.619-9.715a14.652,14.652,0,0,0,0-18.954,11.274,11.274,0,0,0-17.239,0,14.652,14.652,0,0,0,0,18.954Zm-6.625-26.9a8.61,8.61,0,0,1,13.249,0,11.915,11.915,0,0,1,0,15.414l-6.624,7.468-6.625-7.468A11.915,11.915,0,0,1,1225.871,1586.859Z" fill="#141414"/>
      <path id="Path_3193" data-name="Path 3193" d="M1237.639,1653.771a1.334,1.334,0,0,0-1.594,1.008,4.61,4.61,0,0,1-.884,1.856,1.333,1.333,0,1,0,2.1,1.648,7.352,7.352,0,0,0,1.39-2.917A1.335,1.335,0,0,0,1237.639,1653.771Z" fill="#141414"/>
      <path id="Path_3194" data-name="Path 3194" d="M1210.16,1622.415a4.7,4.7,0,0,1-1.669-.306,1.334,1.334,0,1,0-.951,2.492,7.36,7.36,0,0,0,2.617.481h.476a1.333,1.333,0,1,0,0-2.667Z" fill="#141414"/>
      <path id="Path_3195" data-name="Path 3195" d="M1206.995,1613.983a1.334,1.334,0,0,0,.7-.2,4.608,4.608,0,0,1,1.938-.671,1.334,1.334,0,1,0-.292-2.652,7.234,7.234,0,0,0-3.058,1.059,1.334,1.334,0,0,0,.708,2.465Z" fill="#141414"/>
      <path id="Path_3196" data-name="Path 3196" d="M1191.585,1658.415h-2.666a1.333,1.333,0,1,0,0,2.667h2.666a1.333,1.333,0,1,0,0-2.667Z" fill="#141414"/>
      <path id="Path_3197" data-name="Path 3197" d="M1215.491,1634.415c-.115,0-.228,0-.342.008a1.334,1.334,0,0,0,.054,2.666.548.548,0,0,0,.056,0l2.612-.005a1.333,1.333,0,0,0,0-2.667Z" fill="#141414"/>
      <path id="Path_3198" data-name="Path 3198" d="M1214.824,1613.082h2.667a1.333,1.333,0,0,0,0-2.667h-2.667a1.333,1.333,0,0,0,0,2.667Z" fill="#141414"/>
      <path id="Path_3199" data-name="Path 3199" d="M1231.2,1634.415a1.333,1.333,0,0,0,0,2.667h2.667a1.333,1.333,0,0,0,0-2.667Z" fill="#141414"/>
      <path id="Path_3200" data-name="Path 3200" d="M1235.968,1623.749a1.332,1.332,0,0,0-1.333-1.334h-2.667a1.333,1.333,0,0,0,0,2.667h2.667A1.333,1.333,0,0,0,1235.968,1623.749Z" fill="#141414"/>
      <path id="Path_3201" data-name="Path 3201" d="M1223.2,1637.082h2.667a1.333,1.333,0,0,0,0-2.667H1223.2a1.333,1.333,0,0,0,0,2.667Z" fill="#141414"/>
      <path id="Path_3202" data-name="Path 3202" d="M1225.491,1613.082a1.333,1.333,0,0,0,0-2.667h-2.667a1.333,1.333,0,0,0,0,2.667Z" fill="#141414"/>
      <path id="Path_3203" data-name="Path 3203" d="M1215.968,1622.415a1.333,1.333,0,0,0,0,2.667h2.667a1.333,1.333,0,0,0,0-2.667Z" fill="#141414"/>
      <path id="Path_3204" data-name="Path 3204" d="M1227.968,1623.749a1.332,1.332,0,0,0-1.333-1.334h-2.667a1.333,1.333,0,0,0,0,2.667h2.667A1.333,1.333,0,0,0,1227.968,1623.749Z" fill="#141414"/>
      <path id="Path_3205" data-name="Path 3205" d="M1246.735,1628.591a1.334,1.334,0,0,0-2.634.423,4.276,4.276,0,0,1,.056.736,4.675,4.675,0,0,1-.189,1.317,1.333,1.333,0,0,0,.905,1.655,1.358,1.358,0,0,0,.375.053,1.334,1.334,0,0,0,1.28-.958,7.35,7.35,0,0,0,.3-2.058A7.122,7.122,0,0,0,1246.735,1628.591Z" fill="#141414"/>
      <path id="Path_3206" data-name="Path 3206" d="M1223.585,1658.415h-2.666a1.333,1.333,0,1,0,0,2.667h2.666a1.333,1.333,0,1,0,0-2.667Z" fill="#141414"/>
      <path id="Path_3207" data-name="Path 3207" d="M1215.585,1658.415h-2.666a1.333,1.333,0,1,0,0,2.667h2.666a1.333,1.333,0,1,0,0-2.667Z" fill="#141414"/>
      <path id="Path_3208" data-name="Path 3208" d="M1230.253,1647.749a1.332,1.332,0,0,0-1.333-1.334h-2.667a1.333,1.333,0,0,0,0,2.667h2.667A1.333,1.333,0,0,0,1230.253,1647.749Z" fill="#141414"/>
      <path id="Path_3209" data-name="Path 3209" d="M1222.253,1647.749a1.332,1.332,0,0,0-1.333-1.334h-2.667a1.333,1.333,0,0,0,0,2.667h2.667A1.333,1.333,0,0,0,1222.253,1647.749Z" fill="#141414"/>
      <path id="Path_3210" data-name="Path 3210" d="M1231.491,1658.415h-2.574a1.333,1.333,0,0,0,0,2.667h2.628l.039-1.334v1.334a1.294,1.294,0,0,0,1.287-1.334A1.373,1.373,0,0,0,1231.491,1658.415Z" fill="#141414"/>
      <path id="Path_3211" data-name="Path 3211" d="M1236.208,1651.374a1.333,1.333,0,0,0,1.047-2.157,7.4,7.4,0,0,0-2.506-2.038,1.334,1.334,0,0,0-1.188,2.388,4.675,4.675,0,0,1,1.6,1.3A1.338,1.338,0,0,0,1236.208,1651.374Z" fill="#141414"/>
      <path id="Path_3212" data-name="Path 3212" d="M1241.293,1634.054a4.628,4.628,0,0,1-1.8.361h-.287a1.333,1.333,0,0,0,0,2.667h.287a7.285,7.285,0,0,0,2.833-.569,1.333,1.333,0,0,0-1.031-2.459Z" fill="#141414"/>
      <path id="Path_3213" data-name="Path 3213" d="M1204.872,1620.889a1.336,1.336,0,0,0,.851-1.684,4.64,4.64,0,0,1-.232-1.451,5.174,5.174,0,0,1,.037-.6,1.333,1.333,0,1,0-2.645-.333,7.532,7.532,0,0,0-.059.925,7.352,7.352,0,0,0,.364,2.291,1.336,1.336,0,0,0,1.267.917A1.31,1.31,0,0,0,1204.872,1620.889Z" fill="#141414"/>
      <path id="Path_3214" data-name="Path 3214" d="M1199.585,1658.415h-2.666a1.333,1.333,0,1,0,0,2.667h2.666a1.333,1.333,0,1,0,0-2.667Z" fill="#141414"/>
      <path id="Path_3215" data-name="Path 3215" d="M1213,1648.541a1.334,1.334,0,0,0,.556-2.546,4.7,4.7,0,0,1-1.637-1.248,1.334,1.334,0,0,0-2.042,1.716,7.382,7.382,0,0,0,2.57,1.956A1.332,1.332,0,0,0,1213,1648.541Z" fill="#141414"/>
      <path id="Path_3216" data-name="Path 3216" d="M1243.161,1623.4a7.24,7.24,0,0,0-3.089-.962,1.333,1.333,0,1,0-.208,2.658,4.59,4.59,0,0,1,1.96.611,1.321,1.321,0,0,0,.668.18,1.333,1.333,0,0,0,.669-2.487Z" fill="#141414"/>
      <path id="Path_3217" data-name="Path 3217" d="M1207.585,1658.415h-2.666a1.333,1.333,0,1,0,0,2.667h2.666a1.333,1.333,0,1,0,0-2.667Z" fill="#141414"/>
      <path id="Path_3218" data-name="Path 3218" d="M1210.907,1640.867a4.636,4.636,0,0,1,.825-1.884,1.333,1.333,0,0,0-2.148-1.58,7.306,7.306,0,0,0-1.3,2.963,1.333,1.333,0,0,0,1.058,1.561,1.361,1.361,0,0,0,.252.024A1.341,1.341,0,0,0,1210.907,1640.867Z" fill="#141414"/>
      <path id="Path_3219" data-name="Path 3219" d="M1232.824,1601.082a7.333,7.333,0,1,0-7.333-7.333A7.343,7.343,0,0,0,1232.824,1601.082Zm0-12a4.667,4.667,0,1,1-4.667,4.667A4.672,4.672,0,0,1,1232.824,1589.082Z" fill="#141414"/>
      <path id="Path_3220" data-name="Path 3220" d="M1184.157,1622.415a8,8,0,1,0,8,8A8.008,8.008,0,0,0,1184.157,1622.415Zm0,13.334a5.333,5.333,0,1,1,5.334-5.334A5.339,5.339,0,0,1,1184.157,1635.749Z" fill="#141414"/>
    </g>
  </g>
</svg>
