<svg xmlns="http://www.w3.org/2000/svg" width="71.368" height="75" viewBox="0 0 71.368 75">
  <path id="Path_3233" data-name="Path 3233" d="M1204.86,2014.643h-31.929a1.115,1.115,0,0,1-1.115-1.115v-67.315a6.578,6.578,0,0,1,6.571-6.57h8.517a1.114,1.114,0,1,1,0,2.227h-8.517a4.348,4.348,0,0,0-4.343,4.343v66.2h30.816a1.114,1.114,0,1,1,0,2.228Zm10.033,0h-5.578a1.114,1.114,0,0,1,0-2.228h4.814a30.1,30.1,0,0,1,26.827-18.887V1977.56l-24.332-33.88a4.355,4.355,0,0,0-3.528-1.81H1191.36a1.114,1.114,0,1,1,0-2.227H1213.1a6.583,6.583,0,0,1,5.337,2.738l24.542,34.171a1.114,1.114,0,0,1,.209.65v17.419a1.114,1.114,0,0,1-1.114,1.114,27.869,27.869,0,0,0-26.133,18.181A1.114,1.114,0,0,1,1214.893,2014.643Zm8.238-36.327h-38.247a5.648,5.648,0,0,1-5.642-5.642v-20.58a5.032,5.032,0,0,1,5.026-5.026h24.773a7.066,7.066,0,0,1,5.726,2.938l13.35,18.588a6.14,6.14,0,0,1-4.986,9.722Zm-38.863-29.02a2.8,2.8,0,0,0-2.8,2.8v20.58a3.417,3.417,0,0,0,3.414,3.414h38.246a3.912,3.912,0,0,0,3.178-6.194l-13.35-18.589a4.834,4.834,0,0,0-3.917-2.009Zm7.242,40.923h-5.057a7.219,7.219,0,0,1-7.211-7.21,1.114,1.114,0,0,1,1.114-1.114h17.25a1.114,1.114,0,0,1,1.114,1.114A7.218,7.218,0,0,1,1191.51,1990.219Zm-9.915-6.1a4.993,4.993,0,0,0,4.858,3.869h5.057a4.992,4.992,0,0,0,4.857-3.869Z" transform="translate(-1171.816 -1939.643)" fill="#141414"/>
</svg>
