<svg xmlns="http://www.w3.org/2000/svg" width="95.048" height="70" viewBox="0 0 95.048 70">
  <g id="Icon" transform="translate(-979.792 -1763.426)">
    <path id="Path_3221" data-name="Path 3221" d="M996.259,1811.756c1.19,0,.969-.137,11.775-2.972a1.393,1.393,0,0,0,.984-1.705l-2.111-7.879a1.393,1.393,0,0,0-1.7-.985L991.085,1802a1.392,1.392,0,0,0-.985,1.7l1.122,4.189a5.224,5.224,0,0,0,5.037,3.864Zm9.709-5.3-6.223,1.667-1.391-5.189,6.224-1.668Zm-10.3-2.8,1.39,5.189-.169.045a2.431,2.431,0,0,1-2.974-1.717l-.762-2.844Z" fill="#141414"/>
    <path id="Path_3222" data-name="Path 3222" d="M1035.926,1799.869a1.391,1.391,0,0,0,1.7.984l10.427-2.793a5.214,5.214,0,0,0,3.686-6.385l-1.122-4.189a1.393,1.393,0,0,0-1.706-.984l-14.117,3.783a1.391,1.391,0,0,0-.984,1.7Zm13.128-7.473a2.431,2.431,0,0,1-1.717,2.974l-.168.045-1.391-5.189,2.514-.674Zm-5.966-1.45,1.39,5.19-6.223,1.667-1.39-5.189Z" fill="#141414"/>
    <path id="Path_3223" data-name="Path 3223" d="M1009.29,1800.922a8.086,8.086,0,0,0,9.908,5.72l7.693-2.062a8.085,8.085,0,0,0,5.721-9.907l-.726-2.71a1.393,1.393,0,0,0-1.706-.984l-20.632,5.528a1.392,1.392,0,0,0-.984,1.705Zm20.266-6.893.366,1.364a5.3,5.3,0,0,1-3.751,6.5l-7.694,2.061a5.3,5.3,0,0,1-6.5-3.751l-.366-1.365Z" fill="#141414"/>
    <path id="Path_3224" data-name="Path 3224" d="M1018.461,1801.686c.331,0,.131,0,6.254-1.627a1.392,1.392,0,1,0-.721-2.689l-5.892,1.579a1.392,1.392,0,0,0,.359,2.737Z" fill="#141414"/>
    <path id="Path_3225" data-name="Path 3225" d="M1070.951,1816.456h-11.313a1.392,1.392,0,1,0,0,2.784h11.313a1.106,1.106,0,0,1,1.1,1.1v.805h-21.943v-.805a1.107,1.107,0,0,1,1.1-1.1h1.923a1.392,1.392,0,0,0,0-2.784h-1.923a3.893,3.893,0,0,0-3.889,3.889v9.191a3.893,3.893,0,0,0,3.889,3.889h19.734a3.894,3.894,0,0,0,3.889-3.889v-9.191a3.894,3.894,0,0,0-3.889-3.889Zm1.1,7.478v2.012h-21.943v-2.012Zm-1.1,6.706h-19.734a1.106,1.106,0,0,1-1.1-1.1v-.806h21.943v.806a1.106,1.106,0,0,1-1.1,1.1Z" fill="#141414"/>
    <path id="Path_3226" data-name="Path 3226" d="M1043.212,1830.64h-1.055v-7.963a3.006,3.006,0,0,0-1.693-2.7v-5.383l22.015-5.9a3.112,3.112,0,0,0,2.2-3.811l-1.212-4.523a3.119,3.119,0,0,0-2.507-2.268l-3.682-11.342a10.005,10.005,0,0,0-4.738-5.71,4.635,4.635,0,0,0-2.8-8.826l-3.587.962a4.8,4.8,0,0,0-3.128,2.648l-4.545-7.619a9.844,9.844,0,0,0-10.958-4.447l-29.278,7.845a9.845,9.845,0,0,0-7.267,9.331l-.126,8.87a4.8,4.8,0,0,0-4.033-.729l-3.587.961a4.634,4.634,0,0,0,1.985,9.044,10.007,10.007,0,0,0-1.248,7.314l2.483,11.666a3.117,3.117,0,0,0-1.038,3.216l1.212,4.523a3.115,3.115,0,0,0,3.811,2.2l.981-.262.752,2.806a3.892,3.892,0,0,0,3.75,2.884c.9,0,.717-.1,9.891-2.513a3.894,3.894,0,0,0,2.75-4.763l-.752-2.806,25.223-6.759v3.391a3.008,3.008,0,0,0-1.692,2.7v7.963h-1.056a1.392,1.392,0,1,0,0,2.784h12.931a1.393,1.393,0,1,0,0-2.785ZM1033.685,1808l1.381,5.155-18.66,5-1.381-5.156,18.66-5Zm28.273-2.15a.322.322,0,0,1-.2.153l-24,6.431-1.382-5.155,23.947-6.417h0l.056-.015a.32.32,0,0,1,.248.033.314.314,0,0,1,.152.2l1.212,4.523A.324.324,0,0,1,1061.958,1805.851Zm-15.086-29.987,3.587-.961a1.85,1.85,0,0,1,.958,3.574l-5.543,1.485-.434-1.618a2.028,2.028,0,0,1,1.432-2.48Zm-47.91-1.572,29.279-7.845a7.046,7.046,0,0,1,7.846,3.184l6.663,11.168-2.886.774-6.4-10.73a3.756,3.756,0,0,0-4.183-1.7l-21.088,5.65a1.392,1.392,0,1,0,.721,2.69l21.087-5.651a.963.963,0,0,1,1.072.436l6,10.052-37.813,10.132.168-11.7a.963.963,0,0,1,.711-.913l2.387-.64a1.392,1.392,0,0,0-.72-2.69l-2.388.64a3.757,3.757,0,0,0-2.774,3.562l-.179,12.494-2.886.773.186-13a7.048,7.048,0,0,1,5.2-6.68ZM984.907,1796.3a1.85,1.85,0,1,1-.958-3.574c3.676-.961,3.646-1.03,4.111-1.03a2.028,2.028,0,0,1,1.956,1.5l.434,1.618Zm4.807,29.01a.328.328,0,0,1-.4-.231l-1.212-4.523a.327.327,0,0,1,.231-.4l.073-.02,2.858-.765a1.393,1.393,0,0,0-.721-2.69l-1.457.39-2.4-11.255a7.242,7.242,0,0,1,5.21-8.506l53.969-14.461a7.244,7.244,0,0,1,8.761,4.762l3.553,10.945-61.308,16.427a1.393,1.393,0,0,0,.721,2.69l14.739-3.949,1.382,5.155-24,6.432Zm9.963,4.365-1.038-3.873,1.943-.521,1.037,3.873Zm-4.306.819a1.1,1.1,0,0,1-.514-.671l-.752-2.806,1.844-.495,1.038,3.873c-.544.1-1.033.435-1.616.1Zm9.716-2.269-.778.209-1.038-3.874,1.845-.494.752,2.806a1.106,1.106,0,0,1-.781,1.353Zm32.593-12.884v4.335h-1.866v-3.835Zm-3.559,15.3v-7.963a.219.219,0,0,1,.219-.218h4.814a.218.218,0,0,1,.218.218v7.963Z" fill="#141414"/>
  </g>
</svg>
