<svg xmlns="http://www.w3.org/2000/svg" width="100" height="69.986" viewBox="0 0 100 69.986">
  <g id="Icon" transform="translate(-977.382 -1586.089)">
    <g id="Original_copy" data-name="Original copy">
      <path id="Path_3180" data-name="Path 3180" d="M1074.023,1631.08H1067.4v3.339h6.619v10h-6.8c0-.04-.02-.06-.02-.1a10.384,10.384,0,0,0-.4-1.5,1.215,1.215,0,0,0-.1-.24,10.827,10.827,0,0,0-.64-1.38,1.872,1.872,0,0,1-.1-.16,9.987,9.987,0,0,0-.9-1.3l-.02-.02a9.862,9.862,0,0,0-1.119-1.12l-.12-.12a10.822,10.822,0,0,0-1.24-.879l-.22-.14a9.457,9.457,0,0,0-1.36-.66l-.24-.1a9.851,9.851,0,0,0-1.5-.42c-.06-.02-.14-.02-.2-.04a9.479,9.479,0,0,0-3.36,0c-.06.02-.14.02-.2.04a9.818,9.818,0,0,0-1.5.42l-.24.1a8.541,8.541,0,0,0-1.36.66l-.22.14a9.32,9.32,0,0,0-1.24.879l-.12.12a9.862,9.862,0,0,0-1.12,1.12l-.02.02a8.419,8.419,0,0,0-.9,1.3,1.872,1.872,0,0,0-.1.16,9.542,9.542,0,0,0-.64,1.38c-.04.08-.06.16-.1.24a9.19,9.19,0,0,0-.4,1.5c0,.04-.02.06-.02.1h-5.139v-1.659a1.656,1.656,0,0,0-1.66-1.66h-16.656a1.656,1.656,0,0,0-1.66,1.66v1.659h-5v-10h40.052v-3.339H1037.11l-1.36-8.178,16.617-18.577v10.3a6.662,6.662,0,1,0,8.338,6.439,1.659,1.659,0,1,0-3.319,0,3.339,3.339,0,1,1-3.339-3.339,1.656,1.656,0,0,0,1.659-1.66v-14.417a6.666,6.666,0,1,0-8.258-6.959l-18.316,16.4c-.04,0-.06-.02-.1-.02a5.568,5.568,0,0,0-5.519,4.679l-2.56,15.337h-3.579v-18.336a5,5,0,0,0-5-5H999.538a5.015,5.015,0,0,0-4.58,2.979l-5.458,12.3-8.5,2.439a4.974,4.974,0,0,0-3.619,4.8v14.157a3.346,3.346,0,0,0,3.339,3.34h11.818a10.032,10.032,0,0,0,2.419,5H977.382v3.319h99.98v-3.339H1064.8a10.025,10.025,0,0,0,2.42-5h6.819a3.346,3.346,0,0,0,3.339-3.34v-10A3.372,3.372,0,0,0,1074.023,1631.08Zm-22.316-38.192a3.337,3.337,0,1,1,2.2,5.678h-.08c-.16-.02-.32-.04-.46-.06-.1-.02-.18-.06-.28-.079a1.161,1.161,0,0,1-.28-.1c-.1-.04-.2-.1-.3-.14a1.831,1.831,0,0,1-.26-.16,3.121,3.121,0,0,1-.4-.32c-.04-.04-.08-.06-.12-.1s-.06-.08-.1-.12a3.122,3.122,0,0,1-.32-.4,1.079,1.079,0,0,1-.14-.26c-.06-.1-.1-.2-.16-.32a1.3,1.3,0,0,1-.08-.26,1.859,1.859,0,0,1-.08-.32l-.06-.42c0-.04-.02-.08-.02-.12a3.085,3.085,0,0,1,.94-2.5Zm-3.479,5.578.24.36a1.829,1.829,0,0,1,.16.26,6.379,6.379,0,0,0,.66.8c.02.02.02.04.04.06s.04.04.06.04a6.371,6.371,0,0,0,.8.66c.08.06.18.12.28.18a2.849,2.849,0,0,0,.36.22l-15.777,17.636-.479-2.939a6.907,6.907,0,0,0-.24-.92c-.04-.1-.08-.16-.12-.26-.08-.2-.18-.4-.28-.6a1.667,1.667,0,0,0-.16-.24,5.482,5.482,0,0,0-.38-.559,1.293,1.293,0,0,0-.16-.18,3.449,3.449,0,0,0-.54-.54l-.06-.06Zm-21.416,17.837a2.224,2.224,0,0,1,2.24-1.88,2.708,2.708,0,0,1,.4.04,2.253,2.253,0,0,1,1.839,1.84l1.04,6.239v.02l1.42,8.518h-9.4Zm-1.1,28.114h13.338v3.34h-13.338Zm-3.339,3.32v1.659a1.656,1.656,0,0,0,1.66,1.66h16.656a1.656,1.656,0,0,0,1.66-1.66v-1.659h5.159a10.031,10.031,0,0,0,2.419,5h-40.112a10.025,10.025,0,0,0,2.42-5Zm-41.652-13.318h6.659v3.34h-6.659Zm0,6.659h8.339a1.656,1.656,0,0,0,1.659-1.66v-6.658a1.656,1.656,0,0,0-1.659-1.66h-8.339v-.82a1.674,1.674,0,0,1,1.2-1.6l9.258-2.659a1.678,1.678,0,0,0,1.06-.92l5.779-13.017a1.666,1.666,0,0,1,1.52-1h12.837a1.656,1.656,0,0,1,1.66,1.66V1644.4h-1.8c0-.04-.02-.06-.02-.1a10.4,10.4,0,0,0-.4-1.5c-.02-.08-.06-.16-.08-.24a10.835,10.835,0,0,0-.64-1.38,1.838,1.838,0,0,1-.1-.16,8.359,8.359,0,0,0-.9-1.3l-.02-.02a9.858,9.858,0,0,0-1.119-1.12l-.12-.12a9.316,9.316,0,0,0-1.24-.879l-.22-.14a9.443,9.443,0,0,0-1.36-.66l-.24-.1a9.245,9.245,0,0,0-1.5-.42c-.06-.02-.14-.02-.2-.04a9.486,9.486,0,0,0-3.36,0c-.06.02-.14.02-.2.04a9.82,9.82,0,0,0-1.5.42l-.24.1a9.44,9.44,0,0,0-1.36.66l-.22.14a9.316,9.316,0,0,0-1.24.879l-.12.12a9.862,9.862,0,0,0-1.12,1.12l-.019.02a8.363,8.363,0,0,0-.9,1.3,1.844,1.844,0,0,0-.1.16,12.294,12.294,0,0,0-.64,1.38,1.126,1.126,0,0,0-.08.24,11.76,11.76,0,0,0-.4,1.5c0,.04-.02.06-.02.1h-11.8Zm15,5a6.659,6.659,0,1,1,6.659,6.659A6.657,6.657,0,0,1,995.718,1646.077Zm54.989,0a6.659,6.659,0,1,1,6.659,6.659A6.657,6.657,0,0,1,1050.707,1646.077Z" fill="#575757"/>
      <path id="Path_3181" data-name="Path 3181" d="M1060.745,1631.08h3.34v3.339h-3.34Z" fill="#575757"/>
      <path id="Path_3182" data-name="Path 3182" d="M999.038,1626.081h10a1.656,1.656,0,0,0,1.659-1.66v-8.338a1.656,1.656,0,0,0-1.659-1.66h-6.659a1.657,1.657,0,0,0-1.54,1.04L997.5,1623.8a1.667,1.667,0,0,0,.92,2.16,1.707,1.707,0,0,0,.62.12Zm4.459-8.338h3.879v5H1001.5Z" fill="#575757"/>
      <path id="Path_3183" data-name="Path 3183" d="M1005.716,1629.42h5v3.34h-5Z" fill="#575757"/>
      <path id="Path_3184" data-name="Path 3184" d="M1002.377,1642.738a3.339,3.339,0,1,0,3.339,3.339A3.344,3.344,0,0,0,1002.377,1642.738Z" fill="#575757"/>
      <path id="Path_3185" data-name="Path 3185" d="M1057.366,1642.738a3.339,3.339,0,1,0,3.339,3.339A3.344,3.344,0,0,0,1057.366,1642.738Z" fill="#575757"/>
      <path id="Path_3186" data-name="Path 3186" d="M989.04,1596.087h20v3.339h-20Z" fill="#575757"/>
      <path id="Path_3187" data-name="Path 3187" d="M1012.375,1596.087h3.339v3.339h-3.339Z" fill="#575757"/>
      <path id="Path_3188" data-name="Path 3188" d="M1015.714,1586.089h20v3.339h-20v-3.339Z" fill="#575757"/>
      <path id="Path_3189" data-name="Path 3189" d="M1039.03,1586.089h3.339v3.339h-3.339Z" fill="#575757"/>
      <path id="Path_3190" data-name="Path 3190" d="M1027.372,1619.422h3.339v3.34h-3.339Z" fill="#575757"/>
    </g>
  </g>
</svg>
