<svg xmlns="http://www.w3.org/2000/svg" width="88" height="65.312" viewBox="0 0 88 65.312">
  <g id="Group_1836" data-name="Group 1836" transform="translate(-1162.682 -1762.003)">
    <path id="Path_3227" data-name="Path 3227" d="M1241.057,1805.088a5.162,5.162,0,0,0-5.156-5.156h-1.354v-1.354a5.162,5.162,0,0,0-5.156-5.156,1.7,1.7,0,0,0-.408.049c-2.175.531-4.587,2.324-4.746,5.006,0,.033,0,.067,0,.1v1.353h-1.353a5.156,5.156,0,0,0,0,10.313h1.353v1.354a5.156,5.156,0,0,0,10.313,0v-1.354h1.353A5.162,5.162,0,0,0,1241.057,1805.088Zm-8.229,1.719a1.718,1.718,0,0,0-1.718,1.718v3.073a1.719,1.719,0,0,1-3.438,0v-3.073a1.718,1.718,0,0,0-1.719-1.718h-3.072a1.719,1.719,0,0,1,0-3.438h3.072a1.718,1.718,0,0,0,1.719-1.719v-3.009c.074-.77,1.005-1.482,1.913-1.771a1.721,1.721,0,0,1,1.524,1.708v3.072a1.719,1.719,0,0,0,1.719,1.719h3.072a1.719,1.719,0,0,1,0,3.438Z" fill="#141414"/>
    <path id="Path_3228" data-name="Path 3228" d="M1177.463,1799.932a5.156,5.156,0,0,0,0,10.312h13.02a5.156,5.156,0,0,0,0-10.312Zm14.739,5.156a1.721,1.721,0,0,1-1.719,1.718h-13.02a1.719,1.719,0,0,1,0-3.437h13.02A1.721,1.721,0,0,1,1192.2,1805.088Z" fill="#141414"/>
    <path id="Path_3229" data-name="Path 3229" d="M1246.213,1774.378h-13.385v-7.219a5.156,5.156,0,0,0-10.312,0v7.219h-31.668v-7.219a5.156,5.156,0,0,0-10.312,0v8.938a1.718,1.718,0,0,0,1.719,1.718h63.958a1.046,1.046,0,0,1,1.031,1.032v3.781h-81.125v-3.781a1.046,1.046,0,0,1,1.032-1.032h1.353a1.718,1.718,0,1,0,0-3.437h-1.353a4.474,4.474,0,0,0-4.469,4.469v5.5a1.718,1.718,0,0,0,1.719,1.718h1.031v36.782a4.473,4.473,0,0,0,4.469,4.468h52.615a1.718,1.718,0,1,0,0-3.437H1169.9a1.046,1.046,0,0,1-1.032-1.031v-36.782h75.625v36.782a1.045,1.045,0,0,1-1.031,1.031h-7.2a1.718,1.718,0,1,0,0,3.437h7.2a4.473,4.473,0,0,0,4.469-4.468v-36.782h1.031a1.719,1.719,0,0,0,1.719-1.718v-5.5A4.474,4.474,0,0,0,1246.213,1774.378Zm-58.8,0h-3.438v-7.219a1.719,1.719,0,1,1,3.438,0Zm38.542-7.219a1.719,1.719,0,1,1,3.438,0v7.219h-3.438Z" fill="#141414"/>
    <path id="Path_3230" data-name="Path 3230" d="M1175.38,1777.815a1.718,1.718,0,1,0,0-3.437h0a1.718,1.718,0,1,0,0,3.437Z" fill="#141414"/>
    <path id="Path_3231" data-name="Path 3231" d="M1229.391,1823.878h0a1.718,1.718,0,1,0,1.72,1.719A1.718,1.718,0,0,0,1229.39,1823.878Z" fill="#141414"/>
  </g>
</svg>
