<svg xmlns="http://www.w3.org/2000/svg" width="80.001" height="74.689" viewBox="0 0 80.001 74.689">
  <path id="Path_3232" data-name="Path 3232" d="M998.8,1996.91c.271.4.527.8.831,1.168a20.905,20.905,0,0,0,4.031,4.03c.383.3.783.576,1.183.848a20.905,20.905,0,0,0,7.549,3.134c.464.08.911.16,1.359.224a21.083,21.083,0,0,0,5.678,0c.464-.048.912-.128,1.407-.224h.048a20.932,20.932,0,0,0,7.5-3.118c.4-.272.8-.528,1.168-.832a20.934,20.934,0,0,0,4.03-4.03,14.415,14.415,0,0,0,.832-1.184,20.937,20.937,0,0,0,3.134-7.581c.08-.447.16-.9.208-1.327a21.087,21.087,0,0,0,0-5.678c-.048-.463-.128-.911-.224-1.407h0v-.016a20.93,20.93,0,0,0-3.118-7.5c-.272-.4-.544-.8-.832-1.167a20.939,20.939,0,0,0-4.03-4.031c-.384-.3-.784-.575-1.184-.847a20.907,20.907,0,0,0-7.549-3.135c-.463-.08-.911-.16-1.359-.224a21.087,21.087,0,0,0-5.678,0c-.464.048-.911.128-1.407.224h-.048a20.934,20.934,0,0,0-7.5,3.119c-.4.272-.8.527-1.167.831a20.828,20.828,0,0,0-4.015,4.031,13.962,13.962,0,0,0-.831,1.183,20.939,20.939,0,0,0-3.135,7.581c-.08.448-.16.9-.208,1.327a21.087,21.087,0,0,0,0,5.678c.064.464.128.912.224,1.407h0v.016a20.621,20.621,0,0,0,3.1,7.5Zm-.1-6.429h5.006l-3.535,3.534A18.441,18.441,0,0,1,998.705,1990.481Zm12.554,12.555a17.541,17.541,0,0,1-3.534-1.472l3.534-3.55Zm10.668,0v-5.006l3.534,3.534A17.54,17.54,0,0,1,1021.927,2003.036Zm11.1-9.021-3.534-3.534h5.006A18.511,18.511,0,0,1,1033.026,1994.015Zm1.472-14.2h-5.006l3.534-3.534A18.51,18.51,0,0,1,1034.5,1979.813Zm-12.571-12.554a17.529,17.529,0,0,1,3.534,1.471l-3.534,3.551Zm-10.668,0v5.006l-3.534-3.535A17.377,17.377,0,0,1,1011.259,1967.259Zm-5.965,3.038.144-.1,6.221,6.238a1.322,1.322,0,0,0,1.887,0,1.4,1.4,0,0,0,.4-.944v-8.812c.064-.016.112-.016.192-.032a18.254,18.254,0,0,1,2.479-.176c.192,0,.368.016.56.016a15.785,15.785,0,0,1,1.951.16.7.7,0,0,1,.16.032v8.812a1.323,1.323,0,0,0,2.271.928l6.221-6.222a.971.971,0,0,1,.16.112,18.073,18.073,0,0,1,3.535,3.535l.1.144-6.238,6.221a1.336,1.336,0,0,0,.944,2.271h8.812c.016.064.016.112.032.176a17.382,17.382,0,0,1,0,4.99.57.57,0,0,1-.032.16h-8.812a1.324,1.324,0,0,0-.928,2.271l6.238,6.222c-.032.048-.064.095-.112.159a18.486,18.486,0,0,1-3.535,3.535.9.9,0,0,0-.128.1l-6.221-6.237a1.335,1.335,0,0,0-2.287.943v8.812c-.064.016-.112.016-.192.032a17.374,17.374,0,0,1-4.99,0,.7.7,0,0,1-.16-.032V1994.8a1.323,1.323,0,0,0-2.271-.927l-6.221,6.237a.965.965,0,0,1-.16-.112,18.044,18.044,0,0,1-3.535-3.535.823.823,0,0,0-.1-.127l6.238-6.222a1.335,1.335,0,0,0-.944-2.287h-8.844c-.016-.064-.016-.112-.032-.176a17.382,17.382,0,0,1,0-4.99.567.567,0,0,1,.032-.16h8.812a1.323,1.323,0,0,0,.928-2.271l-6.222-6.221c.032-.048.064-.1.112-.16a18.161,18.161,0,0,1,3.535-3.551Zm-5.118,5.982,3.535,3.534h-5.006a18.44,18.44,0,0,1,1.471-3.534Zm16.425,12.875a4,4,0,1,0-4-4A4,4,0,0,0,1016.6,1989.154Zm0-5.342a1.328,1.328,0,1,1-1.327,1.327A1.325,1.325,0,0,1,1016.6,1983.812Zm-1.343-6.669h2.671v2.67h-2.671Zm0,13.338h2.671v2.671h-2.671Zm6.669-6.669h2.671v2.671h-2.671Zm-13.339,0h2.671v2.671h-2.671Zm8.013,30.675c.4,0,.784-.016,1.168-.032a.576.576,0,0,0,.176.032h21.335v-2.671h-10.444c.384-.176.768-.384,1.151-.576a2.973,2.973,0,0,0,.32-.16c.656-.336,1.28-.719,1.9-1.1.159-.1.319-.208.495-.32q.744-.48,1.44-1.008c.144-.112.3-.208.448-.32.239-.191.463-.383.7-.575v.048h29.348a4,4,0,0,1-4,4h-13.339v2.671h13.339a6.676,6.676,0,0,0,6.669-6.669v-13.339a6.676,6.676,0,0,0-6.669-6.669h-.032a6.719,6.719,0,0,0,1.375-4v-13.339a6.483,6.483,0,0,0-1.375-4h.032a6.676,6.676,0,0,0,6.669-6.669v-13.323a6.676,6.676,0,0,0-6.669-6.669h-38.72a6.675,6.675,0,0,0-6.669,6.669v9.373a29.34,29.34,0,0,0,1.343,58.647Zm7.629-57.656c-.512-.128-1.024-.272-1.551-.384-.384-.08-.768-.144-1.152-.208-.512-.08-1.024-.16-1.535-.224-.4-.048-.8-.08-1.2-.112-.288-.015-.56-.063-.831-.079v-1.36h46.684v2.671h-39.3l-.032-.016c-.367-.112-.735-.192-1.087-.288Zm21.191,22.807c-.064-.352-.144-.688-.224-1.024-.016-.048-.016-.1-.032-.128h14.122v2.655h-13.626c-.08-.5-.144-1.008-.24-1.5Zm-1.008-3.823q-.24-.744-.527-1.439c-.128-.336-.272-.672-.4-.992-.032-.08-.064-.144-.1-.224h15.9v2.671h-14.874Zm-2.127,23.494c.064-.128.144-.24.208-.368.32-.591.608-1.2.88-1.807h21.239v2.671h-22.6A4.918,4.918,0,0,0,1042.286,1999.309Zm-4.206,5.838a2.744,2.744,0,0,0,.208-.24c.48-.528.96-1.088,1.407-1.647a1.928,1.928,0,0,0,.16-.224c.128-.176.272-.368.416-.56h24.342v2.671Zm26.533-10.668h-20.2a1.749,1.749,0,0,0,.08-.272c.224-.7.432-1.423.608-2.159a4.815,4.815,0,0,0,.112-.511c.08-.352.16-.7.224-1.072H1060.6a4.027,4.027,0,0,1,4.014,4.014Zm-18.792-6.669a1.213,1.213,0,0,1,.016-.24c.064-.8.112-1.615.112-2.431,0-.448-.032-.9-.064-1.327h13.4a4,4,0,0,1-4,4Zm13.466-17.337h-17.273c-.255-.431-.527-.847-.8-1.263l-.384-.624c-.5-.736-1.04-1.439-1.6-2.127h16.041a4.027,4.027,0,0,1,4.014,4.014Zm1.328-6.669h-23.878c-.368-.336-.752-.656-1.12-.975-.256-.224-.5-.448-.752-.656-.575-.448-1.167-.88-1.759-1.28-.16-.112-.3-.224-.448-.319-.415-.272-.863-.512-1.295-.768h33.266a4.023,4.023,0,0,1-4.014,4Zm-38.688-21.335h38.688a4,4,0,0,1,4,4h-17.321v2.671h17.321v2.671h-46.684v-2.671H1044.6v-2.671h-26.676A4,4,0,0,1,1021.927,1942.469Zm-5.326,15.993c.88,0,1.743.048,2.607.128a27.116,27.116,0,0,1,5.39,1.1v.1h.288a26.657,26.657,0,0,1,18.392,25.349,25.1,25.1,0,0,1-.288,3.807c-.112.783-.256,1.567-.432,2.335a26.646,26.646,0,0,1-24.709,20.487c-.416.032-.832.032-1.248.032a26.669,26.669,0,1,1,0-53.338Zm25.333,53.354h2.671v2.671h-2.671Z" transform="translate(-987.315 -1939.798)" fill="#141414"/>
</svg>
