<?xml version="1.0" encoding="iso-8859-1"?>
<!-- Generator: Adobe Illustrator 21.0.0, SVG Export Plug-In . SVG Version: 6.00 Build 0)  -->
<svg xmlns="http://www.w3.org/2000/svg" xmlns:xlink="http://www.w3.org/1999/xlink" version="1.1" id="Capa_1" x="0px" y="0px" viewBox="0 0 512 512" style="enable-background:new 0 0 512 512;" xml:space="preserve" width="512" height="512">
<g>
	<g>
		<path d="M455.999,316.676c0-16.542-13.458-30-30-30h-7.875V278.8c0-16.542-13.458-30-30-30c-0.8,0-1.597,0.096-2.374,0.286    c-12.652,3.091-26.688,13.524-27.609,29.125c-0.012,0.196-0.018,0.393-0.018,0.589v7.875h-7.875c-16.542,0-30,13.458-30,30    s13.458,30,30,30h7.875v7.875c0,16.542,13.458,30,30,30c16.542,0,30-13.458,30-30v-7.875h7.875    C442.541,346.676,455.999,333.218,455.999,316.676z M408.124,326.676c-5.523,0-10,4.477-10,10v17.875c0,5.514-4.486,10-10,10    c-5.514,0-10-4.486-10-10v-17.875c0-5.523-4.477-10-10-10h-17.875c-5.514,0-10-4.486-10-10s4.486-10,10-10h17.875    c5.523,0,10-4.477,10-10v-17.509c0.432-4.48,5.845-8.623,11.131-10.303c4.983,0.564,8.868,4.805,8.868,9.937v17.875    c0,5.523,4.477,10,10,10h17.875c5.514,0,10,4.486,10,10s-4.486,10-10,10H408.124z"/>
		<path d="M86.001,286.676c-16.542,0-30,13.458-30,30c0,16.542,13.458,30,30,30h75.75c16.542,0,30-13.458,30-30    c0-16.542-13.458-30-30-30H86.001z M171.751,316.675c0,5.514-4.486,10-10,10h-75.75c-5.514,0-10-4.486-10-10    c0-5.514,4.486-10,10-10h75.75C167.266,306.676,171.751,311.161,171.751,316.675z"/>
		<path d="M486,138h-77.876V95.999c0-16.542-13.458-30-30-30c-16.542,0-30,13.458-30,30V138H163.877V95.999    c0-16.542-13.458-30-30-30s-30,13.458-30,30V148c0,5.523,4.477,10,10,10H486c3.252,0,6,2.748,6,6v22H20v-22c0-3.252,2.748-6,6-6    h7.876c5.523,0,10-4.477,10-10s-4.477-10-10-10H26c-14.336,0-26,11.664-26,26v32c0,5.523,4.477,10,10,10h6v214    c0,14.336,11.664,26,26,26h306.124c5.523,0,10-4.477,10-10s-4.477-10-10-10H42c-3.252,0-6-2.748-6-6V206h440v214    c0,3.252-2.748,6-6,6h-41.875c-5.523,0-10,4.477-10,10s4.477,10,10,10H470c14.337,0,26-11.663,26-26V206H502    c5.523,0,10-4.477,10-10v-32C512,149.664,500.336,138,486,138z M143.877,138h-20V95.999c0-5.514,4.486-10,10-10    c5.514,0,10,4.486,10,10V138z M368.124,95.999c0-5.514,4.486-10,10-10c5.514,0,10,4.486,10,10V138h-20V95.999z"/>
		<path d="M73.88,158c5.523,0,10-4.477,10-10s-4.477-10-10-10h-0.007c-5.523,0-9.996,4.477-9.996,10S68.357,158,73.88,158z"/>
		<path d="M388.128,426h-0.007c-5.523,0-9.996,4.477-9.996,10s4.48,10,10.003,10s10-4.477,10-10S393.651,426,388.128,426z"/>
	</g>
</g>















</svg>
