<svg xmlns="http://www.w3.org/2000/svg" width="80" height="59.375" viewBox="0 0 80 59.375">
  <g id="Group_970" data-name="Group 970" transform="translate(-769.256 -1019.77)">
    <path id="Path_2686" data-name="Path 2686" d="M840.506,1058.938a4.693,4.693,0,0,0-4.687-4.687h-1.231v-1.231a4.692,4.692,0,0,0-4.687-4.687,1.6,1.6,0,0,0-.371.044c-1.977.483-4.17,2.113-4.314,4.551,0,.031,0,.061,0,.092v1.231h-1.23a4.688,4.688,0,1,0,0,9.375h1.23v1.23a4.688,4.688,0,0,0,9.375,0v-1.23h1.231A4.693,4.693,0,0,0,840.506,1058.938Zm-7.48,1.563a1.562,1.562,0,0,0-1.563,1.562v2.793a1.563,1.563,0,1,1-3.125,0v-2.793a1.562,1.562,0,0,0-1.562-1.562h-2.793a1.563,1.563,0,1,1,0-3.125h2.793a1.562,1.562,0,0,0,1.562-1.563v-2.736c.068-.7.913-1.347,1.739-1.609a1.564,1.564,0,0,1,1.386,1.552v2.793a1.563,1.563,0,0,0,1.563,1.563h2.793a1.563,1.563,0,0,1,0,3.125Z" fill="#0074d3"/>
    <path id="Path_2687" data-name="Path 2687" d="M782.694,1054.251a4.688,4.688,0,1,0,0,9.375H794.53a4.688,4.688,0,0,0,0-9.375Zm13.4,4.687a1.564,1.564,0,0,1-1.562,1.563H782.694a1.563,1.563,0,1,1,0-3.125H794.53A1.563,1.563,0,0,1,796.092,1058.938Z" fill="#0074d3"/>
    <path id="Path_2688" data-name="Path 2688" d="M845.194,1031.02H833.026v-6.563a4.688,4.688,0,0,0-9.375,0v6.563H794.862v-6.563a4.688,4.688,0,0,0-9.375,0v8.126a1.562,1.562,0,0,0,1.563,1.562h58.144a.95.95,0,0,1,.937.938v3.437h-73.75v-3.437a.95.95,0,0,1,.938-.938h1.23a1.563,1.563,0,1,0,0-3.125h-1.23a4.068,4.068,0,0,0-4.063,4.063v5a1.562,1.562,0,0,0,1.563,1.562h.937v33.438a4.067,4.067,0,0,0,4.063,4.062h47.832a1.563,1.563,0,0,0,0-3.125H775.819a.95.95,0,0,1-.938-.937v-33.438h68.75v33.438a.949.949,0,0,1-.937.937h-6.543a1.563,1.563,0,1,0,0,3.125h6.543a4.066,4.066,0,0,0,4.062-4.062v-33.438h.938a1.562,1.562,0,0,0,1.562-1.562v-5A4.067,4.067,0,0,0,845.194,1031.02Zm-53.457,0h-3.125v-6.563a1.563,1.563,0,0,1,3.125,0Zm35.039-6.563a1.563,1.563,0,0,1,3.125,0v6.563h-3.125Z" fill="#0074d3"/>
    <path id="Path_2689" data-name="Path 2689" d="M780.8,1034.145a1.563,1.563,0,1,0,0-3.125h0a1.563,1.563,0,0,0,0,3.125Z" fill="#0074d3"/>
    <path id="Path_2690" data-name="Path 2690" d="M829.9,1076.02h0a1.563,1.563,0,1,0,1.564,1.563A1.562,1.562,0,0,0,829.9,1076.02Z" fill="#0074d3"/>
  </g>
</svg>
