<svg xmlns="http://www.w3.org/2000/svg" width="63.485" height="38.091" viewBox="0 0 63.485 38.091">
  <g id="Maestro" transform="translate(-1226.515 -1594.006)">
    <path id="Path_2831" data-name="Path 2831" d="M1258.258,1627.159a19.045,19.045,0,0,0-12.7-33.153,19,19,0,1,0,0,37.99,18.443,18.443,0,0,0,12.7-4.837Z" fill="#07a9e2"/>
    <path id="Path_2832" data-name="Path 2832" d="M1226.515,1613.051A19.01,19.01,0,0,0,1245.561,1632a18.347,18.347,0,0,0,12.7-4.938h0a18.995,18.995,0,0,0-12.7-33.052" fill="#009ddd"/>
    <path id="Path_2833" data-name="Path 2833" d="M1258.258,1598.943a19.01,19.01,0,0,0-12.7-4.937h-.907a23.414,23.414,0,0,0-.1,37.99h.907a18.345,18.345,0,0,0,12.7-4.938,19.042,19.042,0,0,0,.1-28.115Z" fill="#0284cc"/>
    <path id="Path_2834" data-name="Path 2834" d="M1271.055,1594.006a18.782,18.782,0,0,0-12.8,4.937,18.073,18.073,0,0,0-1.915,2.016h3.829a14.362,14.362,0,0,1,1.411,2.015h-6.752a19.94,19.94,0,0,0-1.108,2.016h8.968a16.773,16.773,0,0,1,.807,2.015h-10.48c-.2.7-.4,1.31-.6,2.015H1264.1a17.615,17.615,0,0,1,.4,4.031,17.324,17.324,0,0,1-1.007,6.046h-10.48a16.625,16.625,0,0,0,.806,2.016h8.968a12.87,12.87,0,0,1-1.108,2.015h-6.752a14.379,14.379,0,0,0,1.411,2.016h3.829a18.161,18.161,0,0,1-1.914,2.015,19.267,19.267,0,0,0,12.8,4.938,19.046,19.046,0,0,0,0-38.091Z" fill="#ff2957"/>
    <path id="Path_2835" data-name="Path 2835" d="M1271.055,1594.006h0a18.782,18.782,0,0,0-12.8,4.937,18.073,18.073,0,0,0-1.915,2.016h3.829a14.362,14.362,0,0,1,1.411,2.015h-6.752a19.94,19.94,0,0,0-1.108,2.016h8.968a16.773,16.773,0,0,1,.807,2.015h-10.48c-.2.7-.4,1.31-.6,2.015H1264.1a17.615,17.615,0,0,1,.4,4.031,17.324,17.324,0,0,1-1.007,6.046h-10.48a16.625,16.625,0,0,0,.806,2.016h8.968a12.87,12.87,0,0,1-1.108,2.015h-6.752a14.379,14.379,0,0,0,1.411,2.016h3.829a18.161,18.161,0,0,1-1.914,2.015,19.267,19.267,0,0,0,12.8,4.938A18.923,18.923,0,0,0,1290,1613.152" fill="#ed1c2e"/>
    <path id="Path_2836" data-name="Path 2836" d="M1258.258,1627.159a19.054,19.054,0,0,0,0-28.216v28.216Z" fill="#0466b5"/>
    <path id="Path_2837" data-name="Path 2837" d="M1283.45,1617.183a.6.6,0,1,1,.605.6.65.65,0,0,1-.605-.6Zm.605.5c.3,0,.4-.2.4-.5a.369.369,0,0,0-.4-.4.46.46,0,0,0-.5.4.648.648,0,0,0,.5.5Zm0-.3h-.1v-.5h.3l.1.1c0,.1,0,.1-.1.1l.1.2h-.1l-.1-.2h-.1v.3Zm0-.3h.1v-.1h-.1v.1Z" fill="#fff"/>
    <path id="Path_2838" data-name="Path 2838" d="M1258.258,1598.943a18.073,18.073,0,0,0-1.915,2.016h3.829a14.362,14.362,0,0,1,1.411,2.015h-6.752a19.94,19.94,0,0,0-1.108,2.016h8.968a16.773,16.773,0,0,1,.807,2.015h-10.48c-.2.7-.4,1.31-.6,2.015H1264.1a17.615,17.615,0,0,1,.4,4.031,17.324,17.324,0,0,1-1.007,6.046h-10.48a16.625,16.625,0,0,0,.806,2.016h8.968a12.87,12.87,0,0,1-1.108,2.015h-6.752a14.379,14.379,0,0,0,1.411,2.016h3.829a18.161,18.161,0,0,1-1.914,2.015,19.267,19.267,0,0,0,12.8,4.938h.907a23.387,23.387,0,0,0,0-37.89h-.907A18.153,18.153,0,0,0,1258.258,1598.943Z" fill="#d1094b"/>
    <path id="Path_2839" data-name="Path 2839" d="M1243.142,1617.787h-2.418l1.411-7.356-3.225,7.356h-2.116l-.4-7.356-1.411,7.356h-2.116l1.814-9.674h3.728l.2,6.046,2.62-6.046h3.829Z" fill="#fff"/>
    <g id="Group_907" data-name="Group 907">
      <path id="Path_2840" data-name="Path 2840" d="M1240.824,1613.555l1.411-3.124-1.108,5.845a9.321,9.321,0,0,0,.4,1.612h1.612l1.814-9.674h-3.527a19.479,19.479,0,0,0-.7,4.938C1240.824,1613.253,1240.824,1613.354,1240.824,1613.555Z" fill="#dce5e5"/>
      <path id="Path_2841" data-name="Path 2841" d="M1269.544,1617.687a5.612,5.612,0,0,1-1.713.3c-1.21,0-1.814-.6-1.814-1.713a1.966,1.966,0,0,1,.1-.706l.1-.806.1-.6,1.109-5.946h2.317l-.3,1.814h1.209l-.3,1.814h-1.209l-.6,3.225a1.02,1.02,0,0,1-.1.3c0,.4.3.6.806.6.3,0,.5,0,.6-.1l-.3,1.814Z" fill="#dce5e5"/>
      <path id="Path_2842" data-name="Path 2842" d="M1276.5,1610.028c-.2-.1-.2-.1-.3-.1s-.2,0-.2-.1h-.3c-.806,0-1.31.3-2.016,1.31l.2-1.21h-2.116l-1.411,7.86h2.418c.807-4.837,1.21-5.643,2.318-5.643h.3l.3.1.806-2.217Z" fill="#dce5e5"/>
      <path id="Path_2843" data-name="Path 2843" d="M1260.172,1612.447q0,1.51,1.814,2.116c1.008.4,1.109.5,1.109.907,0,.5-.4.705-1.411.705a7.687,7.687,0,0,1-2.116-.3l-.3,1.814h.1l.4.1h.6a7.208,7.208,0,0,0,1.31.1c2.519,0,3.728-.806,3.728-2.62,0-1.108-.5-1.713-1.713-2.217-1.008-.4-1.108-.5-1.108-.806q0-.6,1.209-.6a10.966,10.966,0,0,1,1.713.1l.3-1.814a14.989,14.989,0,0,0-2.116-.1c-2.62,0-3.527,1.209-3.527,2.62Z" fill="#dce5e5"/>
      <path id="Path_2844" data-name="Path 2844" d="M1250.8,1617.787h-1.915v-.806a3.352,3.352,0,0,1-2.519.907,2.009,2.009,0,0,1-2.116-2.116c0-1.915,1.511-3.023,4.131-3.023h1.008a1.346,1.346,0,0,0,.1-.5c0-.5-.4-.7-1.512-.7a10.151,10.151,0,0,0-1.915.2l-.3.1h-.2l.3-1.713a10.531,10.531,0,0,1,2.821-.4c2.016,0,3.124.806,3.124,2.318a6.07,6.07,0,0,1-.2,1.612l-.5,2.821-.1.5-.1.4v.3l-.1.1Zm-1.713-3.527h-.5c-1.31,0-2.016.4-2.016,1.21a.742.742,0,0,0,.806.806,1.789,1.789,0,0,0,1.714-2.016Z" fill="#dce5e5"/>
      <path id="Path_2845" data-name="Path 2845" d="M1258.56,1617.586a9.967,9.967,0,0,1-2.419.3c-2.62,0-4.03-1.209-4.03-3.527,0-2.721,1.713-4.635,4.131-4.635,1.915,0,3.124,1.108,3.124,2.821a7.462,7.462,0,0,1-.3,1.915h-4.736v.3c0,.907.7,1.411,2.015,1.411a4.977,4.977,0,0,0,2.418-.5l-.2,1.915Zm-1.209-4.636v-.4a.982.982,0,0,0-1.109-1.007,1.6,1.6,0,0,0-1.511,1.41Z" fill="#dce5e5"/>
    </g>
    <g id="Group_908" data-name="Group 908">
      <path id="Path_2846" data-name="Path 2846" d="M1283.853,1614.26c-.4,2.62-2.217,3.729-4.635,3.729a3.363,3.363,0,0,1-3.729-3.628,4.39,4.39,0,0,1,4.636-4.635,3.44,3.44,0,0,1,3.728,3.527v1.007Zm-2.519-1.007c0-.806-.3-1.512-1.31-1.512-1.209,0-1.915,1.411-1.915,2.721,0,1.008.5,1.713,1.31,1.713a2.337,2.337,0,0,0,1.814-1.915,3.769,3.769,0,0,0,.1-1.007Z" fill="#fff"/>
      <path id="Path_2847" data-name="Path 2847" d="M1275.59,1615.268a16.413,16.413,0,0,0,.2-2.217v-.2a7.884,7.884,0,0,0-.2,1.612A1.1,1.1,0,0,0,1275.59,1615.268Z" fill="#fff"/>
    </g>
  </g>
</svg>
